<svg xmlns="http://www.w3.org/2000/svg" viewBox="0 0 30 16"><g ><rect width="30" height="16" style="fill:#c60b1e"/></g><g ><rect y="4" width="30" height="8" style="fill:#ffc400"/></g><g ><path d="M5.38,7.11h0l0,0,0,0,0,0s0,0,0-.06a.11.11,0,0,1,0,0l.06,0h.37l0,0,.07,0,.07,0L6,7S6,7,6,7V7S6,7,6,7l0,0,0,0h0s-.17,0-.26,0a1.62,1.62,0,0,0-.24,0" style="fill:#ad1519"/></g><g ><path d="M5.88,7.12h0l-.23,0-.24,0h0l0,0,0,0h0l0,0s0,0,0-.07a.1.1,0,0,1,0-.06h0l0,0h.39l.06,0h0l0,0,0,0A0,0,0,0,1,6,7H6A0,0,0,0,1,6,7a.1.1,0,0,1,0,0l0,0h0l0,0Zm-.26,0,.23,0h0l0,0,0,0L6,7V7A0,0,0,0,0,6,7H6V7l0,0,0,0h0l-.07,0H5.36l-.05,0a.08.08,0,0,0,0,0s0,.06,0,.06l0,0h0l0,0h0A1.62,1.62,0,0,1,5.62,7.08Z"/></g><g ><path d="M5.58,6.9s0-.08,0-.08,0,0,0,.08,0,.08,0,.08,0,0,0-.08" style="fill:#c8b100"/></g><g ><path d="M5.62,7s0,0,0-.09,0-.08,0-.08,0,0,0,.08S5.65,7,5.62,7Zm0-.16s0,0,0,.07,0,.08,0,.08,0,0,0-.08S5.64,6.83,5.62,6.83Z"/></g><g ><path d="M5.6,6.9s0-.07,0-.07,0,0,0,.07,0,.07,0,.07,0,0,0-.07" style="fill:#c8b100"/></g><g ><path d="M5.62,7s0,0,0-.08,0-.08,0-.08,0,0,0,.08S5.64,7,5.62,7Zm0-.15a.24.24,0,0,0,0,.07.17.17,0,0,0,0,.07s0,0,0-.07S5.63,6.83,5.62,6.83Z"/></g><g ><path d="M5.59,6.82a0,0,0,0,1,0,0,0,0,0,0,1,0,0s0,0,0,0l0,0" style="fill:#c8b100"/></g><g ><path d="M5.64,6.81v0h0v0h0v0h0v0h0v0h0v0h0v0h0" style="fill:#c8b100"/></g><g ><path d="M5.65,6.83H5.59v0h0v0h0v0h0v0h0v0h0v0h0v0h0v0Zm-.05,0h0v0h0v0h0v0h0v0h0Z"/></g><g ><path d="M5.66,6.81v0H5.58v0h0v0h0v0h0v0h0v0h0v0h0" style="fill:#c8b100"/></g><g ><path d="M5.67,6.83H5.58v0h0v0h0v0h0v0h0v0h0v0h0v0h0Zm-.08,0h0v0h0v0h0v0h0v0h0Z"/></g><g ><path d="M5.62,6.85a0,0,0,0,1,0,0s0,0,0,0h0s0,0,0,0l0,0s0,0,0,0,0,0,0,0h0a0,0,0,0,1,0,0S5.64,6.85,5.62,6.85Z"/></g><g ><path d="M5.62,7.11H5.47V7c0-.06-.08-.09-.09-.08a0,0,0,0,1,0,0s.12,0,.17.12l0,0h.13V7c.06-.08.14-.14.17-.12s0,0,0,0,0,0-.09.08v.13H5.62" style="fill:#c8b100"/></g><g ><path d="M5.78,7.11H5.46V7a.27.27,0,0,0-.09-.08h0v0l0,0s.12,0,.18.12V7h.12l0,0c.06-.09.14-.15.18-.12v0h0s0,0-.09.08v.13Zm-.31,0h.3V7s.07-.09.09-.09h0s-.11,0-.17.11V7H5.55V7c-.06-.08-.13-.13-.17-.11h0s.07.06.09.09h0V7.1Z"/></g><g ><path d="M5.74,7h0c.06-.09.12-.14.16-.12h0S5.79,6.94,5.74,7ZM5.51,7c-.06-.09-.12-.14-.15-.12h0s.1,0,.16.12Z"/></g><g ><path d="M5.39,7.18a.1.1,0,0,0,0,0,.83.83,0,0,1,.24,0,.9.9,0,0,1,.25,0l0,0v0a.69.69,0,0,0-.22,0,.65.65,0,0,0-.22,0v0h0" style="fill:#c8b100"/></g><g ><path d="M5.85,7.2h0a1.17,1.17,0,0,0-.22,0,.65.65,0,0,0-.22,0h0v0h0l0,0h0a.83.83,0,0,1,.24,0,.85.85,0,0,1,.25,0h0l0,0v0Zm-.45,0h0l.22,0a.72.72,0,0,1,.22,0,0,0,0,0,1,0,0v0a.86.86,0,0,0-.24,0l-.24,0,0,0Z"/></g><g ><path d="M5.62,7.26l.2,0s0,0,0,0h0a.65.65,0,0,0-.22,0,.58.58,0,0,0-.21,0h0l0,0,.19,0" style="fill:#c8b100"/></g><g ><path d="M5.62,7.26h0l-.2,0s0,0,0,0v0l.22,0,.22,0v0s0,0,0,0Zm0-.08-.21,0h0l0,0,.19,0,.2,0s0,0,0,0h0A.72.72,0,0,0,5.62,7.18Z"/></g><g ><path d="M5.87,7.11l0,0h0s0,0,0,0l0,0a0,0,0,0,1,0,0h0s0,0,0,0,0,0,0,0h0l0,0,0,0,0,0h0a1.42,1.42,0,0,1,.24,0,1.56,1.56,0,0,1,.25,0h0" style="fill:#c8b100"/></g><g ><path d="M5.87,7.13h0a.83.83,0,0,0-.24,0,.88.88,0,0,0-.24,0h0v0h0s0,0,0,0,0,0,0,0h0s0,0,0,0a0,0,0,0,0,0,0h0a0,0,0,0,0,0,0h0s0,0,0,0h0l0,0,0,0h0a.07.07,0,0,0,0,0h0l0,0h0s0,0,0,0h0l0,0h0Zm-.25,0a.83.83,0,0,1,.24,0h0l0,0h0a0,0,0,0,1,0,0l0,0h0l0,0,0,0,0,0s0,0,0,0,0,0,0,0l0,0,0,0a0,0,0,0,1,0,0s0,0,0,0h0A.88.88,0,0,1,5.62,7.09Z"/></g><g ><path d="M5.62,7h0a0,0,0,0,0,0,0l0,0h0a0,0,0,0,0,0,0,0,0,0,0,0,0,0h0v0a0,0,0,0,0,0,0h0s0,0,0,0h0l0,0v0l0,0h0a0,0,0,0,1,0,0h0s0,0,0,0l0,0,0,0h0l0,0,0,0h0l0,0,0,0a.05.05,0,0,1,0,0s0,0,0,0,0,0,0,0h0l0,0v0l0,0h0s0,0,0,0h0l0,0a0,0,0,0,0,0,0V7h0s0,0,0,0,0,0,0,0h0s0,0,0,0a0,0,0,0,0,0,0h0" style="fill:#c8b100"/></g><g ><path d="M5.37,7.12h0l0,0h0v0h0l0,0s0,0,0,0h0v0l0,0a0,0,0,0,0,0,0V7h0V7l0,0h0a0,0,0,0,0,0,0s0,0,0,0h0s0,0,0,0a0,0,0,0,0,0,0h0l0,0,0,0h0s0,0,0,0a0,0,0,0,0,0,0h0l0,0V7h0v0a0,0,0,0,0,0,0l0,0v0h0l0,0h0v0h0a.08.08,0,0,1,0,0H5.82s0,0,0,0h0l0,0H5.62l0,0,0,0,0,0h0l0,0h0Zm0,0,0,0h0s0,0,0,0h0l0,0h0s0,0,0,0h0l0,0,0,0h0l0,0,0,0h0a0,0,0,0,0,0,0h0l0,0h0l0,0h0l0,0h0l0,0s0,0,0,0,0,0,0,0h0a0,0,0,0,1,0,0V7h0a0,0,0,0,1,0,0s0,0,0,0,0,0,0,0,0,0,0,0h0a0,0,0,0,1,0,0s0,0,0,0,0,0,0,0a0,0,0,0,1,0,0h0v0s0,0,0,0h0l0,0h0l0,0Z"/></g><g ><path d="M5.62,7.11a.78.78,0,0,0-.24,0h0a.8.8,0,0,1,.5,0h0a.9.9,0,0,0-.25,0" style="fill:#c8b100"/></g><g ><path d="M5.37,7.15h0a.9.9,0,0,1,.25,0,.85.85,0,0,1,.25,0h0s0,0,0,0a1.71,1.71,0,0,0-.25,0,1.42,1.42,0,0,0-.24,0Zm.25-.05a1,1,0,0,0-.25,0h0a1,1,0,0,1,.25,0h0a.9.9,0,0,1,.25,0h0A.85.85,0,0,0,5.62,7.1Z"/></g><g ><path d="M5.53,7.15s0,0,0,0a0,0,0,0,1,0,0h0" style="fill:#fff"/></g><g ><path d="M5.54,7.16h0a0,0,0,0,1,0,0,0,0,0,0,1,0,0Zm0,0a0,0,0,0,0,0,0h0S5.55,7.14,5.54,7.14Z"/></g><g ><path d="M5.62,7.15h0a0,0,0,0,1,0,0h.09s0,0,0,0h0" style="fill:#ad1519"/></g><g ><path d="M5.65,7.16H5.59s0,0,0,0h.09A0,0,0,0,1,5.65,7.16Zm-.06,0Z"/></g><g ><path d="M5.47,7.16h0a0,0,0,0,1,0,0h0" style="fill:#058e6e"/></g><g ><path d="M5.44,7.17h0s0,0,0,0h0a0,0,0,0,1,0,0H5.44Zm0,0h0s0,0,0,0Z"/></g><g ><path d="M5.38,7.18v0h0" style="fill:#ad1519"/></g><g ><path d="M5.4,7.19h0v0h0Zm0,0h0Z"/></g><g ><path d="M5.69,7.15s0,0,0,0,0,0,0,0h0" style="fill:#fff"/></g><g ><path d="M5.7,7.16h0a0,0,0,0,1,0,0,0,0,0,0,1,0,0Zm0,0a0,0,0,0,0,0,0h0S5.71,7.14,5.7,7.14Z"/></g><g ><path d="M5.78,7.16h0s0,0,0,0h0" style="fill:#058e6e"/></g><g ><path d="M5.8,7.17H5.74a0,0,0,0,1,0,0h0s0,0,0,0Zm0,0h0Z"/></g><g ><path d="M5.86,7.18v0h0v0h0" style="fill:#ad1519"/></g><g ><path d="M5.84,7.19v0h0v0Zm0,0h0Z"/></g><g ><path d="M5.62,7.24l-.2,0a.68.68,0,0,1,.4,0l-.2,0" style="fill:#ad1519"/></g><g ><path d="M5.62,7.24l-.2,0h0l.2,0,.2,0h0Zm-.18,0H5.8a.5.5,0,0,0-.18,0A.5.5,0,0,0,5.44,7.22Z"/></g><g ><path d="M5.87,7.07s0,0,0,0h0s0,0,0,0h0" style="fill:#c8b100"/></g><g ><path d="M5.86,7.08h0s0,0,0,0h0s0,0,0,0h0Zm0,0h0Z"/></g><g ><path d="M5.71,7h0" style="fill:#c8b100"/></g><g ><path d="M5.7,7.05h0V7h0V7h0Zm0,0Z"/></g><g ><path d="M5.53,7h0" style="fill:#c8b100"/></g><g ><path d="M5.54,7.05h0V7h0Zm0,0Z"/></g><g ><path d="M5.38,7.07v0h0v0h0" style="fill:#c8b100"/></g><g ><path d="M5.39,7.08h0s0,0,0,0h0Zm0,0h0Z"/></g><g ><path d="M5.62,7l0,0,0,0h0l0,0,0,0" style="fill:#c8b100"/></g><g ><path d="M5.62,7h0l0,0,0,0h0l0,0Zm0,0h0V7l0,0,0,0Z"/></g><g ><path d="M5.56,7h0V7" style="fill:#c8b100"/></g><g ><path d="M5.57,7V7h0Zm0,0h0Z"/></g><g ><path d="M5.68,7h0V7" style="fill:#c8b100"/></g><g ><path d="M5.67,7l0,0h0l0,0Zm0,0h0V7h0Z"/></g><g ><path d="M5.44,7l0,0,0,0h0V7h0" style="fill:#c8b100"/></g><g ><path d="M5.46,7h0l0,0,0,0,0,0V7Zm0,0h0V7h0V7Z"/></g><g ><path d="M5.4,7v0l0,0h0V7" style="fill:#c8b100"/></g><g ><path d="M5.41,7.06l0,0V7h0Zm0,0h0l0,0h0Z"/></g><g ><path d="M5.52,7V7h0l0,0,0,0" style="fill:#c8b100"/></g><g ><path d="M5.51,7h0l0,0,0,0Zm0,0h0Z"/></g><g ><path d="M5.35,7.05v0h0l0,0,0,0" style="fill:#c8b100"/></g><g ><path d="M5.3,7.08h0l0,0h0v0Zm0,0h0l0,0Z"/></g><g ><path d="M5.44,7a0,0,0,0,1,0,0s0,0,0,0h0" style="fill:#c8b100"/></g><g ><path d="M5.46,7.05s0,0,0,0,0,0,0,0a0,0,0,0,1,0,0Zm0,0s0,0,0,0h0A0,0,0,0,0,5.46,7Z"/></g><g ><path d="M5.8,7l0,0,0,0h0V7h0" style="fill:#c8b100"/></g><g ><path d="M5.79,7h0V7l0,0h0l0,0,0,0Zm0,0h0l0,0,0,0h0Z"/></g><g ><path d="M5.85,7l0,0,0,0h0V7" style="fill:#c8b100"/></g><g ><path d="M5.83,7.06l0,0h0V7Zm0,0,0,0h0V7h0Z"/></g><g ><path d="M5.73,7V7h0l0,0V7" style="fill:#c8b100"/></g><g ><path d="M5.73,7V7h0l0,0H5.73Zm0,0h0Z"/></g><g ><path d="M5.88,7.05v0h.05l0,0,0,0" style="fill:#c8b100"/></g><g ><path d="M5.93,7.08h0v0l0,0,0,0h0Zm0,0h0l0,0h0Z"/></g><g ><path d="M5.61,7h0a0,0,0,0,1,0,0s0,0,0,0" style="fill:#c8b100"/></g><g ><path d="M5.62,7s0,0,0,0h0S5.63,7,5.62,7Zm0,0s0,0,0,0a0,0,0,0,0,0,0,0,0,0,0,0,0,0S5.63,7,5.62,7Z"/></g><g ><path d="M5.77,7a0,0,0,0,1,0,0s0,0,0,0h0" style="fill:#c8b100"/></g><g ><path d="M5.79,7.05l0,0a0,0,0,0,1,0,0,0,0,0,0,1,0,0Zm0,0s0,0,0,0h0A0,0,0,0,0,5.79,7Z"/></g><g ><path d="M5.29,7.07l0,0h0v0h0" style="fill:#c8b100"/></g><g ><path d="M5.3,7.08h0l0,0h0V7a0,0,0,0,1,0,0h0Zm0,0h0v0h0a0,0,0,0,0,0,0h0v0h0Z"/></g><g ><path d="M5.29,7.06s0,0,0,0h0s0,0,0,0" style="fill:#c8b100"/></g><g ><path d="M5.31,7.09h0v0h0Zm0,0Z"/></g><g ><path d="M5.94,7.07l0,0h0v0h0" style="fill:#c8b100"/></g><g ><path d="M5.94,7.08h0V7H6l0,0ZM6,7h0v0H6Z"/></g><g ><path d="M5.94,7.06a0,0,0,0,0,0,0h0s0,0,0,0" style="fill:#c8b100"/></g><g ><path d="M5.93,7.09h0v0h0Zm0,0h0Z"/></g><g ><path d="M5.27,7.44H6V7.25H5.27v.19Z" style="fill:#c8b100"/></g><g ><path d="M6,7.44H5.26v-.2H6Zm-.72,0H6V7.26h-.7Z"/></g><g ><path d="M5.34,7.56H5.9s0,0,0,0a.07.07,0,0,1,0,0H5.34s0,0,0,0,0,0,0,0" style="fill:#c8b100"/></g><g ><path d="M5.9,7.57H5.34a0,0,0,0,0,0,0s0,0,0,0h0s0,0,0,0h.58s0,0,0,0,0,0,0,0h0Zm-.53,0h.51s0,0,0,0l0,0H5.37v0S5.37,7.54,5.37,7.55Z"/></g><g ><path d="M5.36,7.56h.53s0,0,0,0a0,0,0,0,1,0,0H5.36s0,0,0,0,0,0,0,0" style="fill:#c8b100"/></g><g ><path d="M5.89,7.61H5.36s0,0,0,0,0,0,0,0h.53a0,0,0,0,1,0,0S5.91,7.61,5.89,7.61Zm-.53-.05s0,0,0,0,0,0,0,0h.53l0,0a0,0,0,0,0,0,0Z"/></g><g ><path d="M5.36,7.44h.53s0,0,0,0,0,0,0,0H5.36s0,0,0,0l0,0" style="fill:#c8b100"/></g><g ><path d="M5.89,7.49H5.36s0,0,0,0,0,0,0,0h.53s0,0,0,0A0,0,0,0,1,5.89,7.49Zm-.53,0s0,0,0,0h.59l0,0Z"/></g><g ><path d="M6.12,10.58a.28.28,0,0,1-.13,0l-.12,0a.21.21,0,0,0-.12,0l-.13,0a.28.28,0,0,1-.13,0l-.12,0a.24.24,0,0,0-.12,0l-.13,0v.08a.25.25,0,0,0,.13,0,.22.22,0,0,1,.12,0l.12,0a.3.3,0,0,0,.26,0l.12,0,.12,0a.28.28,0,0,0,.13,0v-.08" style="fill:#005bbf"/></g><g ><path d="M6.13,10.66h0l-.13,0a.21.21,0,0,0-.12,0,.24.24,0,0,0-.12,0l-.13,0a.28.28,0,0,1-.13,0l-.12,0-.12,0a.25.25,0,0,1-.13,0h0v-.09h0l.13,0a.21.21,0,0,1,.12,0l.13,0a.24.24,0,0,0,.12,0,.21.21,0,0,0,.12,0l.13,0,.13,0a.21.21,0,0,0,.12,0h0Zm-.76-.06.13,0a.24.24,0,0,0,.12,0,.21.21,0,0,0,.12,0l.13,0,.13,0a.2.2,0,0,0,.11,0v-.06a.28.28,0,0,1-.13,0,.21.21,0,0,0-.12,0,.24.24,0,0,0-.12,0,.42.42,0,0,1-.13,0l-.13,0a.2.2,0,0,0-.11,0,.28.28,0,0,0-.13,0l-.12,0v.07a.24.24,0,0,0,.12,0Z"/></g><g ><path d="M6.12,10.66a.28.28,0,0,1-.13,0,.35.35,0,0,0-.12,0,.21.21,0,0,0-.12,0,.3.3,0,0,1-.26,0,.21.21,0,0,0-.12,0,.24.24,0,0,0-.12,0,.25.25,0,0,1-.13,0v.07l.13,0a.25.25,0,0,1,.24,0,.5.5,0,0,0,.13,0,.5.5,0,0,0,.13,0,.25.25,0,0,1,.24,0,.5.5,0,0,0,.13,0v-.08" style="fill:#ccc"/></g><g ><path d="M6.13,10.74h0a.28.28,0,0,1-.13,0l-.12,0-.12,0a.3.3,0,0,1-.26,0l-.12,0-.12,0a.25.25,0,0,1-.13,0h0v-.09h0a.28.28,0,0,0,.13,0l.12,0,.13,0a.24.24,0,0,0,.12,0,.21.21,0,0,0,.12,0l.13,0,.13,0a.24.24,0,0,0,.12,0h0Zm-.76-.06a.27.27,0,0,1,.13,0,.24.24,0,0,0,.12,0,.21.21,0,0,0,.12,0,.3.3,0,0,1,.26,0,.2.2,0,0,0,.11,0v-.07l-.12,0a.21.21,0,0,0-.12,0,.24.24,0,0,0-.12,0l-.13,0-.13,0a.21.21,0,0,0-.12,0,.27.27,0,0,0-.12,0l-.12,0v.07a.24.24,0,0,0,.12,0Z"/></g><g ><path d="M6.12,10.74a.28.28,0,0,1-.13,0,.25.25,0,0,0-.24,0,.28.28,0,0,1-.13,0,.5.5,0,0,1-.13,0,.21.21,0,0,0-.12,0,.24.24,0,0,0-.12,0l-.13,0v.08a.25.25,0,0,0,.13,0l.12,0,.12,0a.3.3,0,0,0,.26,0l.12,0,.12,0a.28.28,0,0,0,.13,0v-.07" style="fill:#005bbf"/></g><g ><path d="M6.13,10.82h0a.28.28,0,0,1-.13,0l-.12,0-.12,0a.25.25,0,0,1-.13,0,.28.28,0,0,1-.13,0l-.12,0-.12,0a.25.25,0,0,1-.13,0h0v-.09h0a.28.28,0,0,0,.13,0,.24.24,0,0,1,.12,0,.28.28,0,0,1,.13,0,.24.24,0,0,0,.12,0,.21.21,0,0,0,.12,0,.3.3,0,0,1,.26,0,.24.24,0,0,0,.12,0h0Zm-.76-.07a.28.28,0,0,1,.13,0,.24.24,0,0,0,.12,0,.21.21,0,0,0,.12,0,.3.3,0,0,1,.26,0,.2.2,0,0,0,.11,0v-.07l-.13,0a.21.21,0,0,0-.12,0,.24.24,0,0,0-.12,0l-.13,0a.31.31,0,0,1-.13,0l-.11,0a.28.28,0,0,0-.13,0l-.12,0v.07a.21.21,0,0,0,.12,0A.21.21,0,0,1,5.37,10.75Z"/></g><g ><path d="M6.12,10.89a.28.28,0,0,1-.13,0l-.12,0-.12,0a.3.3,0,0,1-.26,0l-.12,0-.12,0a.25.25,0,0,1-.13,0v-.08a.25.25,0,0,0,.13,0l.12,0,.12,0a.3.3,0,0,0,.26,0l.12,0,.12,0a.28.28,0,0,0,.13,0v.08" style="fill:#ccc"/></g><g ><path d="M6.13,10.9h0a.28.28,0,0,1-.13,0,.21.21,0,0,0-.12,0,.24.24,0,0,0-.12,0l-.13,0a.28.28,0,0,1-.13,0l-.12,0-.12,0a.25.25,0,0,1-.13,0h0v-.08h0a.28.28,0,0,0,.13,0,.21.21,0,0,1,.12,0,.28.28,0,0,1,.13,0,.25.25,0,0,0,.24,0,.3.3,0,0,1,.26,0,.21.21,0,0,0,.12,0h0Zm-.76-.07a.25.25,0,0,1,.13,0l.12,0,.12,0a.3.3,0,0,1,.26,0l.11,0v-.06a.28.28,0,0,1-.13,0l-.12,0-.12,0a.25.25,0,0,1-.13,0,.28.28,0,0,1-.13,0l-.11,0-.13,0a.21.21,0,0,1-.12,0v.06l.12,0A.21.21,0,0,1,5.37,10.83Z"/></g><g ><path d="M6.12,11a.28.28,0,0,1-.13,0,.26.26,0,0,0-.24,0,.28.28,0,0,1-.13,0,.5.5,0,0,1-.13,0,.21.21,0,0,0-.12,0,.24.24,0,0,0-.12,0,.42.42,0,0,1-.13,0v-.08a.25.25,0,0,0,.13,0,.26.26,0,0,1,.24,0,.3.3,0,0,0,.26,0,.26.26,0,0,1,.24,0,.28.28,0,0,0,.13,0V11" style="fill:#005bbf"/></g><g ><path d="M6.13,11h0L6,11a.21.21,0,0,0-.12,0,.24.24,0,0,0-.12,0l-.13,0a.28.28,0,0,1-.13,0l-.12,0-.12,0a.25.25,0,0,1-.13,0h0v-.09h0a.28.28,0,0,0,.13,0,.24.24,0,0,1,.12,0,.28.28,0,0,1,.13,0,.24.24,0,0,0,.12,0,.21.21,0,0,0,.12,0,.3.3,0,0,1,.26,0,.24.24,0,0,0,.12,0h0Zm-.76-.06.13,0a.24.24,0,0,0,.12,0,.21.21,0,0,0,.12,0l.13,0,.13,0a.2.2,0,0,0,.11,0V10.9a.5.5,0,0,1-.13,0,.21.21,0,0,0-.12,0,.24.24,0,0,0-.12,0,.25.25,0,0,1-.13,0,.31.31,0,0,1-.13,0,.2.2,0,0,0-.11,0,.28.28,0,0,0-.13,0,.35.35,0,0,1-.12,0V11a.24.24,0,0,0,.12,0Z"/></g><g ><path d="M5.34,10.27v0a.1.1,0,0,1-.09.08H6a.09.09,0,0,1-.09-.08v0H5.34" style="fill:#c8b100"/></g><g ><path d="M6,10.38H5.26a.08.08,0,0,0,.08-.07v0h.57v0a.07.07,0,0,0,.08.07H6Zm-.69,0h.64a.08.08,0,0,1-.05-.08H5.35A.08.08,0,0,1,5.3,10.36Z"/></g><g ><path d="M5.36,10.22h.53s0,0,0,0a0,0,0,0,1,0,0H5.36s0,0,0,0l0,0" style="fill:#c8b100"/></g><g ><path d="M5.89,10.27H5.36s0,0,0,0,0,0,0,0h.53s0,0,0,0S5.91,10.27,5.89,10.27Zm-.53,0s0,0,0,0,0,0,0,0h.53l0,0,0,0Z"/></g><g ><path d="M5.26,10.56H6v-.19H5.26Z" style="fill:#c8b100"/></g><g ><path d="M6,10.56H5.25v-.2H6v.2Zm-.73,0H6v-.17H5.26Z"/></g><g ><path d="M5.2,9.56c-.07,0-.12.08-.11.1s0,0,.06.06.08.1,0,.13a.19.19,0,0,0,.08-.15.22.22,0,0,0-.08-.14" style="fill:#ad1519"/></g><g ><path d="M5.21,9.85h0s0,0,0,0a.18.18,0,0,0-.07-.09h0s-.06,0-.06-.06.09-.09.12-.11h0a.19.19,0,0,1,.08.15A.2.2,0,0,1,5.21,9.85Zm0-.29c-.08,0-.11.09-.11.1s0,0,.06.05h0a.2.2,0,0,1,.07.1v0a.18.18,0,0,0,0-.27Z"/></g><g ><path d="M5.36,10.19h.52V7.64H5.36Z" style="fill:#ccc"/></g><g ><path d="M5.8,10.18h0V7.64h0Zm-.06,0h0V7.64h0v2.54Z"/></g><g ><path d="M5.89,10.19H5.36V7.63h.53Zm-.52,0h.51V7.64H5.37Z"/></g><g ><path d="M6.41,8.59a1.57,1.57,0,0,0-.52-.09l-.25,0c-.32.06-.55.18-.53.28h0S5,8.55,5,8.54s.24-.25.59-.31a1,1,0,0,1,.3,0,1.47,1.47,0,0,1,.53.07v.31" style="fill:#ad1519"/></g><g ><path d="M5.11,8.82h0S5,8.55,5,8.54a.19.19,0,0,1,0-.07,1,1,0,0,1,.58-.25l.3,0a1.84,1.84,0,0,1,.53.07h0v.31h0a1.68,1.68,0,0,0-.52-.09l-.25,0a.91.91,0,0,0-.51.21.14.14,0,0,0,0,.06h0Zm.76-.61a1.36,1.36,0,0,0-.29,0A1,1,0,0,0,5,8.47a.09.09,0,0,0,0,.07,1.79,1.79,0,0,0,.1.24.05.05,0,0,1,0,0,.87.87,0,0,1,.51-.22,1.1,1.1,0,0,1,.25,0,1.42,1.42,0,0,1,.52.08v-.3a1.89,1.89,0,0,0-.53-.07Z"/></g><g ><path d="M5.36,8.91c-.14,0-.24-.05-.25-.11s0-.1.12-.15h.13v.25" style="fill:#ad1519"/></g><g ><path d="M5.37,8.92h0c-.15,0-.25-.06-.26-.12s0-.1.13-.15h.14Zm-.13-.26c-.09.05-.13.1-.13.14s.1.09.25.11V8.67Z"/></g><g ><path d="M5.88,8.72a.35.35,0,0,1,.19.06h0S6,8.89,5.88,9V8.72" style="fill:#ad1519"/></g><g ><path d="M5.88,9V8.71h0a.6.6,0,0,1,.2.06h0c0,.05-.13.15-.2.19Zm0-.26V9c.15-.09.19-.15.18-.17h0Z"/></g><g ><path d="M5,9.4s.12-.12.32-.19l.26-.11c.28-.12.48-.26.46-.31h0a1.27,1.27,0,0,1,0,.26c0,.05-.16.19-.41.31l-.34.13c-.14,0-.29.15-.27.18L5,9.4" style="fill:#ad1519"/></g><g ><path d="M5.09,9.67h0L5,9.4H5c0-.05.15-.13.33-.2l.23-.09,0,0a1,1,0,0,0,.45-.29h0c0,.05,0,.19,0,.25v0c0,.07-.2.19-.42.3l-.34.13a.57.57,0,0,0-.27.16h0Zm1-.85a1.3,1.3,0,0,1-.46.28l0,0-.23.09c-.22.08-.34.16-.33.19H5l0,.24a.6.6,0,0,1,.27-.16c.09,0,.26-.1.33-.14a1,1,0,0,0,.42-.28h0C6.1,9,6.09,8.87,6.08,8.82Z"/></g><g ><path d="M5.32,8.47c.07,0,.11-.05.09-.1s0,0-.09,0l-.09,0,.08.19h.05l0-.08Zm0-.09h0a0,0,0,0,1,.05,0s0,0,0,0h0l0-.07" style="fill:#c8b100"/></g><g ><path d="M5.53,8.3H5.47l0,.2.14,0h0v0l-.08,0,0-.18" style="fill:#c8b100"/></g><g ><path d="M5.81,8.47l.09-.21h0a1,1,0,0,1-.07.15c0-.05,0-.1-.07-.14H5.66l.12.2h0" style="fill:#c8b100"/></g><g ><path d="M6.1,8.31l0,0-.06,0c-.06,0-.09,0-.09.05s.1.07.1.11,0,0-.05,0a0,0,0,0,1,0,0H6s0,0,0,0l.06,0c.06,0,.1,0,.11-.06S6,8.35,6,8.31s0,0,0,0,0,0,0,0h0" style="fill:#c8b100"/></g><g ><path d="M10.4,7.05s0,0-.05,0h0l0,0s0,0,0,0a.14.14,0,0,1,0,0h0l0,0h0l0,0,0,0h0V7s0,0,.08,0h.06a.16.16,0,0,1,.11,0l.09,0,.1,0a.13.13,0,0,1,.1,0h.07s.08,0,.07,0v0h0l0,0,0,0h0l0,0h0l0,0s0,0,0,0l0,0h0s0,0,0,0" style="fill:#ad1519"/></g><g ><path d="M10.65,7.11h0l0,0a0,0,0,0,1,0,0s0,0,0,0l0,0,0,0,0,0,0,0s0,0,0,0l0,0,0,0s0,0,0,0,0,0,0,0a0,0,0,0,1,0,0s0,0,0,0h0l0,0h0V7s0,0,.08-.06h.07l.1,0a.15.15,0,0,1,.1,0s0,0,.09,0l.11,0h.06c.05,0,.08,0,.08.06h0v.06h0l0,0h0Zm-.54,0h0l0,0h0s0,0,0,0h0s0,0,0,0a0,0,0,0,0,0,0h0s0,0,0,0h0s0,0,0,0h0s0,0,0,0h0s0,0,0,0h0a0,0,0,0,0,0,0s0,0,0,0h0s0,0,0,0h0l0,0h0l0,0h0V7s0,0-.07,0h-.07a.24.24,0,0,0-.1,0,.12.12,0,0,0-.09,0h0a.12.12,0,0,0-.09,0,.24.24,0,0,0-.1,0h-.07s-.07,0-.07,0v0h0Z"/></g><g ><path d="M10.35,6.92s0-.06,0-.06,0,0,0,.06a.06.06,0,0,1,0,.06s0,0,0-.06" style="fill:#c8b100"/></g><g ><path d="M10.39,7s0,0,0-.07,0-.07,0-.07,0,0,0,.07S10.42,7,10.39,7Zm0-.13s0,0,0,.06,0,.06,0,.06,0,0,0-.06S10.42,6.86,10.39,6.86Z"/></g><g ><path d="M10.38,6.92s0-.06,0-.06,0,0,0,.06,0,.06,0,.06,0,0,0-.06" style="fill:#c8b100"/></g><g ><path d="M10.4,7s0,0,0-.06,0-.06,0-.06,0,0,0,.06S10.41,7,10.4,7Zm0-.12s0,0,0,.06,0,0,0,0a.12.12,0,0,0,0,0A.22.22,0,0,0,10.4,6.86Z"/></g><g ><path d="M10.17,7.18l0,0a.85.85,0,0,1,.25,0,.83.83,0,0,1,.24,0l0,0v0a.65.65,0,0,0-.22,0,.69.69,0,0,0-.22,0v0h0" style="fill:#c8b100"/></g><g ><path d="M10.62,7.2h0a.62.62,0,0,0-.21,0,.61.61,0,0,0-.22,0h0v0h0v0h0a.9.9,0,0,1,.25,0,.83.83,0,0,1,.24,0h0l0,0v0Zm-.45,0h0l.22,0a.68.68,0,0,1,.21,0,0,0,0,0,1,0,0l0,0a.9.9,0,0,0-.24,0l-.24,0s0,0,0,0Z"/></g><g ><path d="M10.4,7.26l.19,0s0,0,0,0h0a.62.62,0,0,0-.21,0,.65.65,0,0,0-.22,0h0s0,0,0,0l.2,0" style="fill:#c8b100"/></g><g ><path d="M10.4,7.26h0l-.2,0s0,0,0,0l0,0,.22,0,.21,0,0,0s0,0,0,0Zm0-.08-.22,0h0l0,0,.19,0,.2,0,0,0h0A.65.65,0,0,0,10.4,7.18Z"/></g><g ><path d="M10.58,7l0,0s0,0,0,0h0" style="fill:#fff"/></g><g ><path d="M10.6,7h0l0,0,0,0Zm0,0h0Z"/></g><g ><path d="M10.59,6.91h0a0,0,0,0,1,0,0,0,0,0,0,1,0,0Zm0,0s0,0,0,0h0S10.6,6.89,10.59,6.89Zm0,0s0,0,0,0,0,0,0,0l0,0Zm0,0h0Zm-.09,0h0a0,0,0,0,1,0,0s0,0,0,0Zm0,0a0,0,0,0,0,0,0h0S10.47,6.84,10.46,6.84Zm0,0a0,0,0,0,1,0,0h0A0,0,0,0,1,10.51,6.87Zm0,0h0s0,0,0,0a0,0,0,0,0,0,0Z"/></g><g ><path d="M10.73,7h0a0,0,0,0,0,0,0,.09.09,0,0,0-.09-.09h0a.1.1,0,0,1,.1.1V7Z"/></g><g ><path d="M10.57,7h0s0,0,0,0,0-.06-.08-.06h0a.08.08,0,0,1,.09.07S10.57,7,10.57,7Z"/></g><g ><path d="M10.75,7h0s0,0,0,0l0,0Zm0,0h0Zm0,0h0l0,0,0,0Zm0,0h0Zm0,0,0,0,0,0s0,0,0,0S10.73,6.93,10.72,6.93Zm0,0h0Zm-.09,0a0,0,0,0,1,0,0,0,0,0,0,1,0,0s0,0,0,0S10.64,6.91,10.63,6.91Zm0,0h0s0,0,0,0a0,0,0,0,0,0,0Zm0,0a0,0,0,0,1,0,0l0,0,0,0A0,0,0,0,1,10.67,6.91Zm0,0h0a0,0,0,0,0,0,0Z"/></g><g ><path d="M10.65,7.11l0,0h0a0,0,0,0,1,0,0l-.05,0a0,0,0,0,1,0,0h-.05s0,0,0,0,0,0,0,0h0l0,0,0,0,0,0h0a0,0,0,0,1,0,0h0a1.57,1.57,0,0,1,.24,0,1.42,1.42,0,0,1,.25,0h0" style="fill:#c8b100"/></g><g ><path d="M10.64,7.13h0a.88.88,0,0,0-.24,0,.83.83,0,0,0-.24,0h0v0h.06a0,0,0,0,0,0,0h0l0,0s0,0,0,0h0a0,0,0,0,0,0,0h0s0,0,0,0h0s0,0,0,0l0,0h0l0,0h0l0,0h.05l0,0Zm-.24,0a.88.88,0,0,1,.24,0h0l0,0h0l0,0,0,0,0,0,0,0,0,0a0,0,0,0,1,0,0l0,0,0,0,0,0,0,0s0,0,0,0v0h0A.83.83,0,0,1,10.4,7.09Z"/></g><g ><path d="M10.18,7s0,0,0,0,0,0,0,0h0" style="fill:#fff"/></g><g ><path d="M10.19,7h0l0,0,0,0Zm0,0h0Z"/></g><g ><path d="M10.2,6.91h0a0,0,0,0,1,0,0,0,0,0,0,1,0,0Zm0,0s0,0,0,0h0A0,0,0,0,0,10.2,6.89Zm0,0s0,0,0,0,0,0,0,0l0,0Zm0,0h0Zm.09,0h0s0,0,0,0,0,0,0,0Zm0,0a0,0,0,0,0,0,0h0A0,0,0,0,0,10.32,6.84Zm0,0a0,0,0,0,1,0,0h0A0,0,0,0,1,10.28,6.87Zm0,0h0s0,0,0,0a0,0,0,0,0,0,0Z"/></g><g ><path d="M10.06,7h0a0,0,0,0,1,0,0,.09.09,0,0,1,.1-.1h0a.09.09,0,0,0-.08.09,0,0,0,0,0,0,0Z"/></g><g ><path d="M10.22,7s0,0,0,0a.08.08,0,0,1,.09-.07h0l0,0a.08.08,0,0,0-.08.07V7Z"/></g><g ><path d="M10,7h0s0,0,0,0l0,0Zm0,0h0Zm0,0h0l0,0a0,0,0,0,1,0,0Zm0,0h0Zm0,0,0,0a0,0,0,0,1,0,0,0,0,0,0,1,0,0Zm0,0h0Zm.09,0a0,0,0,0,1,0,0l0,0,0,0A0,0,0,0,1,10.16,6.91Zm0,0h0a0,0,0,0,0,0,0s0,0,0,0Zm0,0a0,0,0,0,1,0,0l0,0s0,0,0,0A0,0,0,0,1,10.12,6.91Zm0,0h0a0,0,0,0,0,0,0h0Z"/></g><g ><path d="M10.4,7h0s0,0,0,0l0,0h0a0,0,0,0,0,0,0,0,0,0,0,0,0,0h0v0s0,0,0,0h0l0,0h0l0,0h0s0,0,0,0h0l0,0s0,0,0,0a.05.05,0,0,1,0,0l0,0,0,0h0l0,0-.05,0h0l0,0,0,0s0,0,0,0h0a0,0,0,0,1,0,0h0l0,0h0l0,0h0l0,0h0l0,0a0,0,0,0,0,0,0V7h0a0,0,0,0,0,0,0s0,0,0,0h0l0,0s0,0,0,0h0" style="fill:#c8b100"/></g><g ><path d="M10.14,7.12h0l0,0h0v0h0l0,0s0,0,0,0h0v0l0,0,0,0a0,0,0,0,0,0,0h0V7h0s0,0,0,0l0,0h0l0,0a0,0,0,0,0,0,0h0a0,0,0,0,0,0,0l0,0h0v0h0l0,0a0,0,0,0,0,0,0h0l0,0V7h0v0a0,0,0,0,0,0,0l0,0,0,0v0h0l0,0h0v0h0l0,0H10.6l0,0h0l0,0h-.15l0,0h0l-.05,0h0Zm-.05,0,0,0h0a0,0,0,0,0,0,0h0l.05,0h0s0,0,0,0h0l0,0,0,0h0l0,0,0,0h0a0,0,0,0,0,0,0h0l0,0h0l0,0h0l0,0h0l0,0h0s0,0,0,0h0s0,0,0,0V7h0a0,0,0,0,1,0,0s0,0,0,0l0,0s0,0,0,0h0s0,0,0,0l0,0a0,0,0,0,1,0,0,0,0,0,0,1,0,0h0v0s0,0,0,0h0s0,0,0,0h0l0,0Z"/></g><g ><path d="M10.4,7.11a.85.85,0,0,0-.25,0h0a.82.82,0,0,1,.25,0,.93.93,0,0,1,.25,0h0a.83.83,0,0,0-.24,0" style="fill:#c8b100"/></g><g ><path d="M10.15,7.15a0,0,0,0,1,0,0h0a1,1,0,0,1,.25,0,1,1,0,0,1,.26,0h0s0,0,0,0l-.25,0a1.57,1.57,0,0,0-.24,0Zm.25-.05a.85.85,0,0,0-.25,0h0a.85.85,0,0,1,.25,0h0a.83.83,0,0,1,.24,0h0A.83.83,0,0,0,10.4,7.1Z"/></g><g ><path d="M10.3,7.15a0,0,0,0,1,0,0,0,0,0,0,1,0,0h0" style="fill:#fff"/></g><g ><path d="M10.32,7.16h0a0,0,0,0,1,0,0s0,0,0,0Zm0,0s0,0,0,0h0Z"/></g><g ><path d="M10.4,7.15h0a0,0,0,0,1,0,0h.09a0,0,0,0,1,0,0h0" style="fill:#ad1519"/></g><g ><path d="M10.43,7.16h-.07a0,0,0,0,1,0,0h.09S10.44,7.16,10.43,7.16Zm-.07,0Z"/></g><g ><path d="M10.24,7.16h0s0,0,0,0h0" style="fill:#058e6e"/></g><g ><path d="M10.22,7.17h0s0,0,0,0h-.06Zm0,0h0A0,0,0,0,0,10.26,7.14Z"/></g><g ><path d="M10.15,7.18v0h0" style="fill:#ad1519"/></g><g ><path d="M10.17,7.19h0v0h0Zm0,0h0Z"/></g><g ><path d="M10.46,7.15a0,0,0,0,1,0,0,0,0,0,0,1,0,0h0" style="fill:#fff"/></g><g ><path d="M10.47,7.16h0s0,0,0,0a0,0,0,0,1,0,0Zm0,0a0,0,0,0,0,0,0h0S10.48,7.14,10.47,7.14Z"/></g><g ><path d="M10.55,7.16h0s0,0,0,0h0" style="fill:#058e6e"/></g><g ><path d="M10.57,7.17h-.06s0,0,0,0h0Zm0,0h0Z"/></g><g ><path d="M10.64,7.18v0h0v0h0" style="fill:#ad1519"/></g><g ><path d="M10.62,7.19l0,0h0v0Zm0,0h0Z"/></g><g ><path d="M10.4,7.24l-.21,0a.66.66,0,0,1,.21,0,.64.64,0,0,1,.2,0l-.2,0" style="fill:#ad1519"/></g><g ><path d="M10.4,7.24l-.21,0h0l.21,0,.2,0h0Zm-.19,0h.37a.52.52,0,0,0-.18,0A.55.55,0,0,0,10.21,7.22Z"/></g><g ><path d="M10.64,7.07v0h0s0,0,0,0h0" style="fill:#c8b100"/></g><g ><path d="M10.63,7.08h0v0h0a0,0,0,0,1,0,0h0Zm0,0h0s0,0,0,0Z"/></g><g ><path d="M10.48,7s0,0,0,0h0" style="fill:#c8b100"/></g><g ><path d="M10.48,7.05h0s0,0,0,0h0Zm0,0Z"/></g><g ><path d="M10.31,7s0,0,0,0h0" style="fill:#c8b100"/></g><g ><path d="M10.31,7.05h0l0,0h0Zm0,0Z"/></g><g ><path d="M10.15,7.07v0h0s0,0,0,0h0" style="fill:#c8b100"/></g><g ><path d="M10.16,7.08h0s0,0,0,0h0Zm0,0Z"/></g><g ><path d="M10.4,7l0,0,0,0h0l0,0,0,0" style="fill:#c8b100"/></g><g ><path d="M10.4,7h0l0,0,0,0h0l0,0Zm0,0h0l0,0,0,0,0,0Z"/></g><g ><path d="M10.33,7h0l0,0" style="fill:#c8b100"/></g><g ><path d="M10.35,7l0,0,0,0,0,0h0Zm0,0h0Z"/></g><g ><path d="M10.45,7h0V7" style="fill:#c8b100"/></g><g ><path d="M10.44,7l0,0h0l0,0Zm0,0h0V7h0Z"/></g><g ><path d="M10.22,7l0,0,0,0h0V7h0" style="fill:#c8b100"/></g><g ><path d="M10.23,7h0l0,0,0,0h0l0,0V7Zm0,0h0V7h0l0,0Z"/></g><g ><path d="M10.17,7l0,0,0,0h-.05V7" style="fill:#c8b100"/></g><g ><path d="M10.19,7.06l0,0V7h.05Zm0,0h0l0,0h0Z"/></g><g ><path d="M10.29,7V7h0l0,0,0,0" style="fill:#c8b100"/></g><g ><path d="M10.28,7h0l0,0,0,0Zm0,0h0Z"/></g><g ><path d="M10.13,7.05v0h0l0,0,0,0" style="fill:#c8b100"/></g><g ><path d="M10.08,7.08h0l0,0h0v0Zm0,0h0l0,0Z"/></g><g ><path d="M10.21,7a0,0,0,0,1,0,0,0,0,0,0,1,0,0h0" style="fill:#c8b100"/></g><g ><path d="M10.23,7.05l0,0a0,0,0,0,1,0,0,0,0,0,0,1,0,0Zm0,0s0,0,0,0h0S10.24,7,10.23,7Z"/></g><g ><path d="M10.57,7l0,0,0,0h0V7h0" style="fill:#c8b100"/></g><g ><path d="M10.56,7h0V7l0,0h0l0,0,0,0Zm0,0h0l0,0,0,0h0Z"/></g><g ><path d="M10.62,7l0,0,0,0h0V7" style="fill:#c8b100"/></g><g ><path d="M10.6,7.06l0,0h0V7Zm0,0,0,0h0V7Z"/></g><g ><path d="M10.5,7V7h.05l0,0,0,0" style="fill:#c8b100"/></g><g ><path d="M10.51,7V7l0,0,0,0h-.05Zm0,0h0l0,0Z"/></g><g ><path d="M10.66,7.05v0h.05l0,0,0,0" style="fill:#c8b100"/></g><g ><path d="M10.71,7.08h-.05v0l0,0,0,0h0Zm-.05,0h0l0,0h0Z"/></g><g ><path d="M10.38,7h0V7a0,0,0,0,1,0,0" style="fill:#c8b100"/></g><g ><path d="M10.4,7s0,0,0,0h0S10.41,7,10.4,7Zm0,0,0,0h0Z"/></g><g ><path d="M10.55,7s0,0,0,0a0,0,0,0,1,0,0h0" style="fill:#c8b100"/></g><g ><path d="M10.56,7.05l0,0a0,0,0,0,1,0,0,0,0,0,0,1,0,0Zm0,0a0,0,0,0,0,0,0h0S10.57,7,10.56,7Z"/></g><g ><path d="M10.36,6.85a0,0,0,0,1,0,0,0,0,0,0,1,0,0s0,0,0,0,0,0,0,0" style="fill:#c8b100"/></g><g ><path d="M10.42,6.84v0h-.05v0h0v0h0v0h0v0h0v0h0v0h0v0h0" style="fill:#c8b100"/></g><g ><path d="M10.42,6.86h-.06v0h0v0h0v0h0v0h0v0h0v0h0v0h0v0Zm0,0h0v0h0v0h0v0h0v0h0Z"/></g><g ><path d="M10.44,6.84v0h-.09v0h0v0h0v0h0v0h0v0h0v0h0v0h0" style="fill:#c8b100"/></g><g ><path d="M10.4,6.88s0,0,0,0a0,0,0,0,1,0,0h0l0,0a0,0,0,0,0,0,0s0,0,0,0l0,0h0a0,0,0,0,1,0,0A0,0,0,0,1,10.4,6.88Z"/></g><g ><path d="M10.07,7.07l0,0h0a0,0,0,0,1,0,0h0" style="fill:#c8b100"/></g><g ><path d="M10.07,7.08h0l0,0h0v0h0Zm0,0h0l0,0h0V7h0v0h0Z"/></g><g ><path d="M10.07,7.06h0s0,0,0,0" style="fill:#c8b100"/></g><g ><path d="M10.08,7.09h0v0h0Zm0,0Z"/></g><g ><path d="M10.72,7.07l0,0h0v0h0" style="fill:#c8b100"/></g><g ><path d="M10.72,7.08h0V7h0l0,0Zm0,0h0a0,0,0,0,0,0,0h0Z"/></g><g ><path d="M10.72,7.06h0s0,0,0,0h0s0,0,0,0" style="fill:#c8b100"/></g><g ><path d="M10.7,7.09h0v0h0Zm0,0h0Z"/></g><g ><path d="M10,7.44h.71V7.25H10Z" style="fill:#c8b100"/></g><g ><path d="M10.76,7.44H10v-.2h.73Zm-.71,0h.7V7.26h-.7Z"/></g><g ><path d="M10.68,7.56h-.57s0,0,0,0a0,0,0,0,0,0,0h.57s0,0,0,0,0,0,0,0" style="fill:#c8b100"/></g><g ><path d="M10.11,7.57h0a0,0,0,0,0,0,0s0,0,0,0h.57s0,0,0,0a0,0,0,0,0,0,0h0s0,0,0,0h-.56Zm0,0h.51a0,0,0,0,1,0,0v0h-.51s0,0,0,0A0,0,0,0,1,10.14,7.55Z"/></g><g ><path d="M10.13,7.56h.53s0,0,0,0,0,0,0,0h-.53a0,0,0,0,1,0,0s0,0,0,0" style="fill:#c8b100"/></g><g ><path d="M10.66,7.61h-.53s0,0,0,0a0,0,0,0,1,0,0h.53s0,0,0,0S10.69,7.61,10.66,7.61Zm-.53-.05s0,0,0,0l0,0h.53s0,0,0,0,0,0,0,0Z"/></g><g ><path d="M10.13,7.44h.53l0,0,0,0h-.53s0,0,0,0,0,0,0,0" style="fill:#c8b100"/></g><g ><path d="M10.66,7.49h-.53a0,0,0,0,1,0,0s0,0,0,0h.53s0,0,0,0S10.69,7.49,10.66,7.49Zm-.53,0s0,0,0,0h.59s0,0,0,0Z"/></g><g ><path d="M9.9,10.58a.21.21,0,0,0,.12,0l.13,0a.24.24,0,0,1,.12,0l.13,0a.21.21,0,0,0,.12,0l.12,0a.28.28,0,0,1,.13,0l.12,0v.08a.24.24,0,0,1-.12,0,.25.25,0,0,0-.13,0l-.12,0a.21.21,0,0,1-.12,0,.25.25,0,0,1-.13,0l-.12,0-.13,0a.21.21,0,0,1-.12,0v-.08" style="fill:#005bbf"/></g><g ><path d="M10.9,10.66h0l-.13,0a.27.27,0,0,0-.12,0,.21.21,0,0,0-.12,0l-.13,0-.13,0a.24.24,0,0,0-.12,0,.21.21,0,0,0-.12,0,.28.28,0,0,1-.13,0h0v-.09h0a.24.24,0,0,0,.12,0,.25.25,0,0,1,.13,0,.24.24,0,0,1,.12,0,.28.28,0,0,0,.13,0,.24.24,0,0,0,.12,0,.27.27,0,0,1,.12,0,.25.25,0,0,1,.13,0,.24.24,0,0,0,.12,0h0Zm-.75-.06a.28.28,0,0,1,.13,0l.12,0a.24.24,0,0,0,.12,0l.13,0a.24.24,0,0,1,.12,0l.12,0v-.06a.21.21,0,0,1-.12,0,.28.28,0,0,0-.13,0,.27.27,0,0,0-.12,0,.24.24,0,0,1-.12,0,.25.25,0,0,1-.13,0,.27.27,0,0,0-.12,0,.28.28,0,0,0-.13,0,.21.21,0,0,1-.12,0v.06l.12,0A.28.28,0,0,1,10.15,10.6Z"/></g><g ><path d="M9.9,10.66a.21.21,0,0,0,.12,0,.42.42,0,0,1,.13,0,.24.24,0,0,1,.12,0,.25.25,0,0,0,.13,0,.21.21,0,0,0,.12,0,.24.24,0,0,1,.12,0,.28.28,0,0,1,.13,0,.21.21,0,0,0,.12,0v.07l-.12,0a.25.25,0,0,0-.13,0,.27.27,0,0,0-.12,0,.35.35,0,0,1-.12,0,.42.42,0,0,1-.13,0,.24.24,0,0,0-.12,0,.25.25,0,0,0-.13,0,.35.35,0,0,1-.12,0v-.08" style="fill:#ccc"/></g><g ><path d="M10.9,10.74h0a.25.25,0,0,1-.13,0l-.12,0-.12,0a.31.31,0,0,1-.13,0,.25.25,0,0,1-.13,0l-.12,0-.12,0a.28.28,0,0,1-.13,0h0v-.09h0a.24.24,0,0,0,.12,0l.13,0,.12,0a.28.28,0,0,0,.13,0,.24.24,0,0,0,.12,0l.12,0,.13,0a.24.24,0,0,0,.12,0h0Zm-.75-.06.13,0a.21.21,0,0,0,.12,0,.24.24,0,0,0,.12,0l.13,0,.12,0a.24.24,0,0,0,.12,0v-.06l-.12,0a.28.28,0,0,0-.13,0,.27.27,0,0,0-.12,0,.24.24,0,0,1-.12,0,.25.25,0,0,1-.13,0,.27.27,0,0,0-.12,0,.28.28,0,0,0-.13,0,.21.21,0,0,1-.12,0v.06a.21.21,0,0,0,.12,0Z"/></g><g ><path d="M9.9,10.74a.21.21,0,0,0,.12,0,.25.25,0,0,1,.13,0,.24.24,0,0,1,.12,0,.25.25,0,0,0,.13,0,.35.35,0,0,0,.12,0,.24.24,0,0,1,.12,0,.28.28,0,0,1,.13,0l.12,0v.08a.24.24,0,0,1-.12,0l-.13,0-.12,0a.21.21,0,0,1-.12,0,.25.25,0,0,1-.13,0l-.12,0-.13,0a.21.21,0,0,1-.12,0v-.07" style="fill:#005bbf"/></g><g ><path d="M10.9,10.82h0a.25.25,0,0,1-.13,0,.25.25,0,0,0-.12,0,.22.22,0,0,0-.12,0,.31.31,0,0,1-.13,0,.25.25,0,0,1-.13,0,.23.23,0,0,0-.12,0,.22.22,0,0,0-.12,0,.28.28,0,0,1-.13,0h0v-.09h0a.24.24,0,0,0,.12,0,.25.25,0,0,1,.13,0,.24.24,0,0,1,.12,0,.28.28,0,0,0,.13,0,.24.24,0,0,0,.12,0,.4.4,0,0,1,.25,0,.24.24,0,0,0,.12,0h0Zm-.75-.07a.28.28,0,0,1,.13,0,.21.21,0,0,0,.12,0,.24.24,0,0,0,.12,0,.28.28,0,0,1,.13,0,.24.24,0,0,1,.12,0,.42.42,0,0,0,.12,0v-.07a.21.21,0,0,1-.12,0l-.13,0-.12,0a.24.24,0,0,1-.12,0,.25.25,0,0,1-.13,0l-.12,0-.13,0a.21.21,0,0,1-.12,0v.06l.12,0A.28.28,0,0,1,10.15,10.75Z"/></g><g ><path d="M9.9,10.89a.21.21,0,0,0,.12,0l.13,0,.12,0a.25.25,0,0,0,.13,0,.21.21,0,0,0,.12,0l.12,0,.13,0a.21.21,0,0,0,.12,0v-.08l-.12,0a.25.25,0,0,0-.13,0l-.12,0a.21.21,0,0,1-.12,0,.25.25,0,0,1-.13,0l-.12,0-.13,0a.21.21,0,0,1-.12,0v.08" style="fill:#ccc"/></g><g ><path d="M10.9,10.9h0a.25.25,0,0,1-.13,0l-.12,0a.21.21,0,0,0-.12,0,.28.28,0,0,1-.13,0,.25.25,0,0,1-.13,0,.24.24,0,0,0-.12,0,.21.21,0,0,0-.12,0,.28.28,0,0,1-.13,0h0v-.09h0a.24.24,0,0,0,.12,0,.25.25,0,0,1,.13,0,.24.24,0,0,1,.12,0,.28.28,0,0,0,.13,0,.24.24,0,0,0,.12,0,.24.24,0,0,1,.12,0,.25.25,0,0,1,.13,0,.24.24,0,0,0,.12,0h0v.09Zm-.75-.07a.28.28,0,0,1,.13,0l.12,0,.12,0a.28.28,0,0,1,.13,0,.24.24,0,0,1,.12,0l.12,0v-.06a.21.21,0,0,1-.12,0,.27.27,0,0,0-.13,0,.25.25,0,0,0-.12,0,.24.24,0,0,1-.12,0,.25.25,0,0,1-.13,0,.23.23,0,0,0-.12,0,.27.27,0,0,0-.13,0,.21.21,0,0,1-.12,0v.06l.12,0A.28.28,0,0,1,10.15,10.83Z"/></g><g ><path d="M9.9,11a.21.21,0,0,0,.12,0,.25.25,0,0,1,.13,0,.24.24,0,0,1,.12,0,.25.25,0,0,0,.13,0,.35.35,0,0,0,.12,0,.24.24,0,0,1,.12,0,.28.28,0,0,1,.13,0,.35.35,0,0,0,.12,0v-.08a.24.24,0,0,1-.12,0,.25.25,0,0,0-.13,0l-.12,0a.21.21,0,0,1-.12,0,.25.25,0,0,1-.13,0,.24.24,0,0,0-.12,0,.25.25,0,0,0-.13,0,.21.21,0,0,1-.12,0V11" style="fill:#005bbf"/></g><g ><path d="M10.9,11h0a.25.25,0,0,1-.13,0l-.12,0-.12,0a.28.28,0,0,1-.13,0,.25.25,0,0,1-.13,0l-.12,0-.12,0a.28.28,0,0,1-.13,0h0v-.09h0l.12,0a.25.25,0,0,1,.13,0,.24.24,0,0,1,.12,0l.13,0a.24.24,0,0,0,.12,0l.12,0a.25.25,0,0,1,.13,0l.12,0h0Zm-.75-.06.13,0a.21.21,0,0,0,.12,0,.24.24,0,0,0,.12,0l.13,0a.24.24,0,0,1,.12,0l.12,0V10.9a.21.21,0,0,1-.12,0,.28.28,0,0,0-.13,0l-.12,0a.24.24,0,0,1-.12,0,.25.25,0,0,1-.13,0,.24.24,0,0,0-.12,0,.28.28,0,0,0-.13,0,.21.21,0,0,1-.12,0V11l.12,0A.28.28,0,0,1,10.15,10.91Z"/></g><g ><path d="M10.68,10.27v0a.09.09,0,0,0,.09.08H10a.09.09,0,0,0,.09-.08v0h.56" style="fill:#c8b100"/></g><g ><path d="M10.76,10.38H10a.08.08,0,0,0,.08-.07v0h.57v0a.08.08,0,0,0,.08.07h0Zm-.68,0h.63a.09.09,0,0,1,0-.08h-.54S10.11,10.35,10.08,10.36Z"/></g><g ><path d="M10.13,10.22h.53l0,0s0,0,0,0h-.53a0,0,0,0,1,0,0s0,0,0,0" style="fill:#c8b100"/></g><g ><path d="M10.66,10.27h-.53s0,0,0,0,0,0,0,0h.53s0,0,0,0S10.69,10.27,10.66,10.27Zm-.53,0s0,0,0,0l0,0h.53s0,0,0,0,0,0,0,0Z"/></g><g ><path d="M10,10.56h.73v-.19H10Z" style="fill:#c8b100"/></g><g ><path d="M10.77,10.56H10v-.2h.75Zm-.73,0h.72v-.17H10Z"/></g><g ><path d="M10.82,9.56c.07,0,.12.08.11.1s0,0-.06.06-.08.1-.06.13a.21.21,0,0,1-.07-.15.16.16,0,0,1,.08-.14" style="fill:#ad1519"/></g><g ><path d="M10.81,9.85a.17.17,0,0,1-.07-.15.19.19,0,0,1,.08-.15h0s.13.08.12.11,0,0-.06.06h0s-.07.06-.07.09,0,0,0,0Zm0-.29a.18.18,0,0,0,0,.27v0a.2.2,0,0,1,.07-.1h0s.05,0,.06-.05S10.9,9.61,10.82,9.56Z"/></g><g ><path d="M10.14,10.19h.52V7.64h-.52Z" style="fill:#ccc"/></g><g ><path d="M10.58,10.18h0V7.64h0Zm-.06,0h0V7.64h0Z"/></g><g ><path d="M10.66,10.19h-.53V7.63h.53Zm-.52,0h.51V7.64h-.51Z"/></g><g ><path d="M9.6,8.59a1.7,1.7,0,0,1,.53-.09l.25,0c.31.06.55.18.53.28h0s.11-.26.12-.27-.25-.25-.59-.31l-.31,0a1.48,1.48,0,0,0-.53.08v.31" style="fill:#ad1519"/></g><g ><path d="M10.91,8.82h0a.14.14,0,0,0,0-.06.94.94,0,0,0-.51-.21l-.25,0a1.68,1.68,0,0,0-.52.09h0V8.28h0a1.91,1.91,0,0,1,.54-.07h0l.29,0a.94.94,0,0,1,.57.25.07.07,0,0,1,0,.07s-.09.23-.11.27Zm-.78-.32a1.06,1.06,0,0,1,.25,0,.87.87,0,0,1,.52.22.05.05,0,0,1,0,0c0-.1.1-.23.1-.24s0,0,0-.07a1,1,0,0,0-.56-.23,1.36,1.36,0,0,0-.29,0h0a1.84,1.84,0,0,0-.53.07v.3A1.49,1.49,0,0,1,10.13,8.5Z"/></g><g ><path d="M10.66,8.91c.14,0,.24-.05.25-.11s0-.1-.13-.15h-.12v.25" style="fill:#ad1519"/></g><g ><path d="M10.65,8.92V8.66h.14c.09,0,.14.1.13.15s-.11.11-.26.12Zm0-.25V8.9c.15,0,.24-.05.25-.1s0-.09-.13-.14h-.12Z"/></g><g ><path d="M10.14,8.72a.43.43,0,0,0-.2.06h0s.06.11.2.19V8.72" style="fill:#ad1519"/></g><g ><path d="M10.14,9h0c-.08-.05-.22-.14-.19-.19h0a.47.47,0,0,1,.19-.06h0ZM10,8.78h0s0,.07.18.16V8.72Z"/></g><g ><path d="M11,9.4s-.13-.12-.32-.19L10.4,9.1c-.28-.12-.48-.26-.46-.31h0a2.6,2.6,0,0,0,0,.26c0,.05.16.19.41.31l.34.13c.14,0,.28.15.27.18L11,9.4" style="fill:#ad1519"/></g><g ><path d="M10.93,9.67h0a.57.57,0,0,0-.27-.16l-.34-.13c-.22-.11-.4-.23-.42-.3V9c0-.06,0-.2,0-.25h0s0,0,0,0a1,1,0,0,0,.45.29h0l.24.1c.17.07.34.15.33.2l-.05.26h0Zm-1-.85s0,.14,0,.22h0a1,1,0,0,0,.41.28l.34.13a.85.85,0,0,1,.27.16l0-.23h0s-.1-.11-.32-.19l-.23-.1h0A1.19,1.19,0,0,1,9.94,8.82Z"/></g><g ><path d="M9.93,8.48c0-.08.05-.15.07-.22h0c0,.05,0,.1-.05.15l-.09-.14H9.76l.14.18h0" style="fill:#c8b100"/></g><g ><path d="M10.13,8.26h-.06v.21h.14v0h-.09V8.26" style="fill:#c8b100"/></g><g ><path d="M10.35,8.3h.07v0h0l-.19,0v0h.07l0,.19h.06V8.3" style="fill:#c8b100"/></g><g ><path d="M10.43,8.5h.06l0-.1h0l0,0,0,.07h.07v0l0-.1s.06,0,.07,0a0,0,0,0,0,0-.05l-.06,0h-.08l-.05.2m.1-.18s.05,0,.05,0h0s0,0-.07,0l0-.08" style="fill:#c8b100"/></g><g ><path d="M10.8,8.56a.2.2,0,0,1,0,.07h0l0,0,0-.23h0l-.2.13h0s0,0,.06,0l.07,0Zm-.06-.05.07,0v.08l-.06,0" style="fill:#c8b100"/></g><g ><path d="M7.28,6.48a.07.07,0,0,1-.07-.07.07.07,0,0,1,.14,0A.08.08,0,0,1,7.28,6.48Zm0-.13a.07.07,0,0,0-.07.06.07.07,0,0,0,.07.07.07.07,0,0,0,.06-.07A.06.06,0,0,0,7.28,6.35Z"/></g><g ><path d="M8,5.85a1.45,1.45,0,0,1,.52.08A1.5,1.5,0,0,0,8.78,6H9a1,1,0,0,1,.34.08,1.08,1.08,0,0,1,.25.16l-.05,0v.13l-.14.16-.07.06-.16.13H9.07l0,.08L8,6.71l-1.06.13,0-.08H6.83l-.16-.13L6.6,6.57l-.14-.16V6.29l0,0a.9.9,0,0,1,.25-.16A.77.77,0,0,1,7,6h.22a1.38,1.38,0,0,0,.26-.07A1.49,1.49,0,0,1,8,5.85Z" style="fill:#ad1519"/><path d="M9.05,6.84h0L8,6.72l-1,.12,0-.07H6.83l-.17-.13L6.6,6.57l-.14-.16h0l0-.12-.05,0h0a1,1,0,0,1,.25-.16A.93.93,0,0,1,7,6H7A.76.76,0,0,0,7.2,6a.88.88,0,0,0,.27-.07A1.58,1.58,0,0,1,8,5.84a1.6,1.6,0,0,1,.53.08A.62.62,0,0,0,8.78,6,.83.83,0,0,0,9,6a.88.88,0,0,1,.34.08,1,1,0,0,1,.26.16h0l0,0,0,.12h0l-.14.16-.07.06-.16.13H9.08ZM6.83,6.76h.09l0,.07,1-.12,1.06.12,0-.07h.09l.16-.13.07-.06.13-.16,0-.13h0l0,0a.9.9,0,0,0-.24-.15A.84.84,0,0,0,9,6H8.78a.88.88,0,0,1-.27-.07A1.54,1.54,0,0,0,8,5.85a1.47,1.47,0,0,0-.51.08A1,1,0,0,1,7.21,6H7a.84.84,0,0,0-.33.08.76.76,0,0,0-.25.15l0,0h0v.12l.14.16.07.06Z"/></g><g ><path d="M8,7.24a3.42,3.42,0,0,1-1-.13s0,0,0,0A0,0,0,0,1,7,7,3.87,3.87,0,0,1,9,7s0,0,0,0a0,0,0,0,1,0,0,3.39,3.39,0,0,1-1,.13" style="fill:#c8b100"/><path d="M8,7.24H8a3.55,3.55,0,0,1-1-.12,0,0,0,0,1,0,0S7,7,7,7a3.55,3.55,0,0,1,1-.12A3.53,3.53,0,0,1,9,7a0,0,0,0,1,0,0s0,0,0,0A3.53,3.53,0,0,1,8,7.24Zm0-.32A4,4,0,0,0,7,7s0,0,0,0,0,0,0,0a3.53,3.53,0,0,0,1,.12,3.6,3.6,0,0,0,1-.12s0,0,0,0A.05.05,0,0,0,9,7,3.94,3.94,0,0,0,8,6.92Z"/></g><g ><path d="M8,7.19a3.84,3.84,0,0,1-.91-.11,4.24,4.24,0,0,1,1.83,0A3.86,3.86,0,0,1,8,7.19" style="fill:#ad1519"/></g><g ><rect x="8.03" y="6.98" height="0.21"/></g><g ><rect x="7.97" y="6.98" height="0.21"/></g><g ><rect x="7.92" y="6.98" width="0.01" height="0.21"/></g><g ><rect x="7.86" y="6.98" width="0.01" height="0.21"/></g><g ><rect x="7.81" y="6.98" width="0.01" height="0.21"/></g><g ><path d="M7.78,7.18h0V7h0Zm-.06,0V7h0v.19Z"/></g><g ><path d="M7.68,7.17V7h0v.18Zm0,0h0V7h0v.18Z"/></g><g ><path d="M7.61,7.17h0V7h0v.17Zm0,0h0V7h0v.16Zm0,0h0V7h0v.16Z"/></g><g ><rect x="7.48" y="7.01" width="0.01" height="0.15"/></g><g ><rect x="7.45" y="7.01" width="0.02" height="0.14"/></g><g ><rect x="7.41" y="7.02" width="0.02" height="0.13"/></g><g ><path d="M7.39,7.14h0V7h0Zm-.07,0V7h0v.11Z"/></g><g ><rect x="7.28" y="7.03" width="0.02" height="0.09"/></g><g ><rect x="7.24" y="7.04" width="0.02" height="0.08"/></g><g ><rect x="7.2" y="7.05" width="0.02" height="0.06"/></g><g ><rect x="7.16" y="7.06" width="0.03" height="0.04"/></g><g ><rect x="7.11" y="7.07" width="0.03" height="0.02"/></g><g ><path d="M8.09,7.19h0V7h0Zm.07,0h0V7h0Zm.1,0h0V7h0Z"/></g><g ><path d="M8,6.91A4.34,4.34,0,0,0,7,7s0,0,0-.1-.08-.08-.08-.08A4.11,4.11,0,0,1,8,6.73a4.19,4.19,0,0,1,1.1.13s0,0-.08.08S9,7,9,7a4.36,4.36,0,0,0-1-.13" style="fill:#c8b100"/><path d="M9,7.05a3.65,3.65,0,0,0-1-.13,3.57,3.57,0,0,0-1,.13H7s0,0,0-.1-.07-.07-.07-.07h0A3.85,3.85,0,0,1,8,6.72a3.87,3.87,0,0,1,1.1.14h0s0,0-.07.07S9,7,9,7ZM6.93,6.86A.14.14,0,0,1,7,6.94.51.51,0,0,1,7,7a3.5,3.5,0,0,1,1-.12H8A3.53,3.53,0,0,1,9,7a.23.23,0,0,1,0-.09.11.11,0,0,1,.06-.08A4.24,4.24,0,0,0,8,6.74,4.21,4.21,0,0,0,6.93,6.86Z"/></g><g ><path d="M8,6.73a4.11,4.11,0,0,0-1.09.13s0,0,0,0,0,0,0,0A4.18,4.18,0,0,1,8,6.66a4.26,4.26,0,0,1,1.12.14s0,0,0,0,0,0,0,0A4.19,4.19,0,0,0,8,6.73" style="fill:#c8b100"/><path d="M6.9,6.87a.05.05,0,0,1,0,0v0l0,0A4.29,4.29,0,0,1,8,6.65a4.87,4.87,0,0,1,1.12.14l0,0v0a0,0,0,0,1-.05,0A3.9,3.9,0,0,0,8,6.74a3.88,3.88,0,0,0-1.09.13ZM8,6.67a4,4,0,0,0-1.11.14h0v0s0,0,0,0A3.85,3.85,0,0,1,8,6.72H8a3.87,3.87,0,0,1,1.1.14,0,0,0,0,0,0,0v0h0A4,4,0,0,0,8,6.67Z"/></g><g ><path d="M8,7.19H8a3.71,3.71,0,0,1-.92-.1h0A3.49,3.49,0,0,1,8,7a3.51,3.51,0,0,1,.92.11h0A3.73,3.73,0,0,1,8,7.19Zm-.89-.11a4.06,4.06,0,0,0,1.79,0A4,4,0,0,0,8,7,4,4,0,0,0,7.11,7.08Z"/></g><g ><path d="M7.7,6.83s0,0,0,0a0,0,0,0,1,0,0s0,0,0,0a0,0,0,0,1,0,0" style="fill:#fff"/><path d="M7.73,6.87a0,0,0,0,1,0-.08,0,0,0,0,1,0,.08A0,0,0,0,1,7.73,6.87Zm0-.07a0,0,0,0,0,0,0l0,0s0,0,0,0A0,0,0,0,0,7.73,6.8Z"/></g><g ><path d="M8,6.85H7.9s0,0,0,0,0,0,0,0h.21s0,0,0,0,0,0,0,0H8" style="fill:#ad1519"/><path d="M8.11,6.86H7.9a0,0,0,0,1,0-.08h.21a0,0,0,1,1,0,.08ZM7.9,6.79a0,0,0,1,0,0,.06h.21a0,0,0,0,0,0,0,0,0,0,0,0,0,0Z"/></g><g ><path d="M7.48,6.88H7.4s0,0,0,0,0,0,0,0h.16a0,0,0,0,1,0,0s0,0,0,0H7.48" style="fill:#058e6e"/><path d="M7.4,6.9a0,0,0,0,1,0,0s0,0,0,0h0l.15,0s0,0,0,0a0,0,0,0,1,0,0s0,0,0,0l-.15,0Zm.15-.09h0l-.16,0h0v0a0,0,0,0,0,0,0l.15,0h0v0A0,0,0,0,0,7.55,6.81Z"/></g><g ><path d="M7.17,6.89a0,0,0,0,1,0,0s0,0,0,0,0,0,0,0a0,0,0,0,1,0,0" style="fill:#fff"/><path d="M7.2,6.93a0,0,0,0,1,0-.08,0,0,0,0,1,0,0S7.23,6.93,7.2,6.93Zm0-.07s0,0,0,0,0,0,0,0a0,0,0,0,0,0,0A0,0,0,0,0,7.2,6.86Z"/></g><g ><path d="M6.93,7l0,0h.11L7,7,6.93,7" style="fill:#ad1519"/><path d="M7,7,6.93,7l0-.06.13,0ZM7,7,7,7l.07,0H7Z"/></g><g ><path d="M8.53,6.88h.08s0,0,0,0,0,0,0,0H8.46a0,0,0,0,0,0,0s0,0,0,0h.07" style="fill:#058e6e"/><path d="M8.61,6.9h0l-.16,0,0,0s0,0,0,0a0,0,0,0,1,0,0l.16,0h0s0,0,0,0A0,0,0,0,1,8.61,6.9Zm-.08,0h.08s0,0,0,0v0h0l-.16,0h0a0,0,0,0,0,0,0v0h.09Z"/></g><g ><path d="M8.24,6.83a0,0,0,0,1,0,0s0,0,0,0a0,0,0,0,1,0,0,0,0,0,0,1,0,0" style="fill:#fff"/><path d="M8.28,6.87a0,0,0,0,1,0,0,0,0,0,1,1,.08,0A0,0,0,0,1,8.24,6.83Zm0-.07a0,0,0,0,0,0,0s0,0,0,0l0,0A0,0,0,0,0,8.28,6.8Z"/></g><g ><path d="M8.77,6.89s0,0,0,0a0,0,0,0,1,0,0,0,0,0,0,1,0,0s0,0,0,0" style="fill:#fff"/><path d="M8.81,6.93a0,0,0,1,1,0-.08,0,0,0,0,1,0,.08Zm0-.07a0,0,0,0,0,0,0,0,0,0,0,0,0,0s0,0,0,0S8.82,6.86,8.81,6.86Z"/></g><g ><path d="M9.07,7l0,0H8.93L9,7l.06,0" style="fill:#ad1519"/><path d="M9,7H9l-.1-.07.13,0,0,.06Zm-.07-.06L9,7l.05,0,0,0Z"/></g><g ><path d="M9,7.1A3.73,3.73,0,0,0,8,7a3.7,3.7,0,0,0-1,.11H7A3.4,3.4,0,0,1,8,7a3.43,3.43,0,0,1,1,.12Z"/></g><g ><path d="M7.21,6.12l0,0,.06-.11a.24.24,0,0,1-.12-.21v0c0-.14.18-.26.39-.26a.49.49,0,0,1,.28.08.13.13,0,0,0,0-.06.65.65,0,0,0-.29-.07c-.25,0-.44.14-.45.3v0a.33.33,0,0,0,.1.23l0,0" style="fill:#c8b100"/></g><g ><path d="M7.26,6.17l-.06,0,0-.06a.29.29,0,0,1-.1-.23v0c0-.17.21-.31.45-.31a.61.61,0,0,1,.3.08h0s0,0,0,.06h0a.49.49,0,0,0-.28-.08c-.21,0-.37.11-.38.25v0a.25.25,0,0,0,.12.21h0Zm0,0,0,0,.06-.1a.24.24,0,0,1-.12-.21v0c0-.14.18-.25.39-.25a.49.49,0,0,1,.28.07.09.09,0,0,1,0,0,.65.65,0,0,0-.29-.07c-.23,0-.43.14-.44.3v0a.26.26,0,0,0,.1.22h0Z"/></g><g ><path d="M7.21,6.13a.33.33,0,0,1-.13-.25.34.34,0,0,1,.18-.27.33.33,0,0,0-.12.2v0a.3.3,0,0,0,.11.23l0,.06" style="fill:#c8b100"/></g><g ><path d="M7.22,6.14h0a.31.31,0,0,1-.14-.25.34.34,0,0,1,.18-.27h0a.27.27,0,0,0-.11.2v0a.26.26,0,0,0,.1.22h0Zm0-.48a.28.28,0,0,0-.12.22.33.33,0,0,0,.13.24l0,0a.3.3,0,0,1-.11-.23v0A.24.24,0,0,1,7.2,5.66Z"/></g><g ><path d="M6.47,6.24A.32.32,0,0,1,6.39,6a.61.61,0,0,1,0-.13A.63.63,0,0,1,7,5.67l.2,0,0,0L7,5.72a.53.53,0,0,0-.48.22.17.17,0,0,0,0,.1.28.28,0,0,0,.09.19l-.08.13,0,0,.06-.09" style="fill:#c8b100"/></g><g ><path d="M6.46,6.37l0,0,0-.09a.31.31,0,0,1,0-.33A.58.58,0,0,1,7,5.67a.65.65,0,0,1,.2,0h0l0,0h0L7,5.73a.55.55,0,0,0-.48.21.36.36,0,0,0,0,.1.21.21,0,0,0,.09.18h0Zm0,0,0,0,.07-.13A.27.27,0,0,1,6.45,6a.18.18,0,0,1,0-.1A.54.54,0,0,1,7,5.72h.16l0,0a.52.52,0,0,0-.18,0,.6.6,0,0,0-.53.24A.27.27,0,0,0,6.4,6a.27.27,0,0,0,.08.19h0Z"/></g><g ><path d="M6.56,5.78a.35.35,0,0,0-.14.13.61.61,0,0,0,0,.13.3.3,0,0,0,.08.2l0,.08a.34.34,0,0,1-.08-.21.38.38,0,0,1,.22-.33" style="fill:#c8b100"/></g><g ><path d="M6.42,6.33h0a.33.33,0,0,1-.07-.21.38.38,0,0,1,.21-.34h0a.34.34,0,0,0-.13.14A.27.27,0,0,0,6.4,6a.27.27,0,0,0,.08.19h0Zm0-.44a.37.37,0,0,0-.08.22.31.31,0,0,0,.07.2l0-.07a.31.31,0,0,1,0-.33Z"/></g><g ><path d="M8,5.48a.12.12,0,0,1,.12.09s0,.09,0,.15h0v0a1,1,0,0,0,0,.28L8,6.19,7.83,6a1,1,0,0,0,0-.28v0s0-.1,0-.14A.13.13,0,0,1,8,5.48" style="fill:#c8b100"/></g><g ><path d="M8,6.2H8L7.82,6h0a.91.91,0,0,0,0-.27h0c0-.06,0-.11,0-.15A.12.12,0,0,1,8,5.47a.14.14,0,0,1,.13.1s0,.09,0,.15h0a.67.67,0,0,0,0,.27h0ZM7.84,6,8,6.18,8.16,6a1.42,1.42,0,0,1,0-.27h0a.61.61,0,0,0,0-.14A.1.1,0,0,0,8,5.49a.11.11,0,0,0-.11.08.66.66,0,0,0,0,.15h0A1,1,0,0,1,7.84,6Z"/></g><g ><path d="M8,5.53a.06.06,0,0,1,.06,0,.61.61,0,0,1,0,.14h0v0a.88.88,0,0,0,0,.26L8,6.12,7.89,6a1.3,1.3,0,0,0,0-.26v0h0a.61.61,0,0,1,0-.14.06.06,0,0,1,.06,0" style="fill:#c8b100"/></g><g ><path d="M8,6.13,7.88,6h0a.89.89,0,0,0,0-.26h0s0-.1,0-.14a.07.07,0,0,1,.14,0s0,.09,0,.14h0v0h0a.89.89,0,0,0,0,.26h0ZM7.89,6l.11.1L8.11,6a.65.65,0,0,1,0-.26h0v0h0s0-.1,0-.14a.07.07,0,0,0-.06,0,0,0,0,0,0,0,0,.59.59,0,0,0,0,.14h0A.65.65,0,0,1,7.89,6Z"/></g><g ><path d="M8.79,6.12l0,0-.07-.11a.24.24,0,0,0,.12-.21v0c0-.14-.18-.26-.39-.26a.49.49,0,0,0-.28.08.13.13,0,0,1,0-.06.65.65,0,0,1,.29-.07c.25,0,.44.14.45.3v0a.33.33,0,0,1-.1.23l0,0" style="fill:#c8b100"/></g><g ><path d="M8.74,6.17l-.07-.12h0a.26.26,0,0,0,.12-.21v0c0-.14-.17-.25-.38-.25a.49.49,0,0,0-.28.08h0a.13.13,0,0,0,0-.06h0a.55.55,0,0,1,.29-.08c.24,0,.44.14.45.31v0a.3.3,0,0,1-.11.23l0,.06Zm-.05-.12.06.1,0,0,0,0h0a.26.26,0,0,0,.1-.22v0c0-.17-.21-.31-.44-.31a.61.61,0,0,0-.28.07v0a.49.49,0,0,1,.28-.07c.21,0,.39.11.4.25v0A.24.24,0,0,1,8.69,6.05Z"/></g><g ><path d="M8.79,6.13a.34.34,0,0,0,.14-.25.37.37,0,0,0-.18-.27.37.37,0,0,1,.11.2v0a.33.33,0,0,1-.1.23l0,.06" style="fill:#c8b100"/></g><g ><path d="M8.79,6.14l0-.07h0a.26.26,0,0,0,.1-.22v0a.24.24,0,0,0-.11-.2h0a.34.34,0,0,1,.18.27.31.31,0,0,1-.14.25Zm0-.07,0,0a.33.33,0,0,0,.13-.24.28.28,0,0,0-.12-.22.24.24,0,0,1,.06.15v0A.3.3,0,0,1,8.76,6.07Z"/></g><g ><path d="M9.53,6.24A.3.3,0,0,0,9.61,6a.28.28,0,0,0,0-.13A.6.6,0,0,0,9,5.67l-.19,0,0,0,.16,0a.56.56,0,0,1,.49.22.3.3,0,0,1,0,.1.28.28,0,0,1-.09.19l.08.13.05,0-.06-.09" style="fill:#c8b100"/></g><g ><path d="M9.54,6.37h0l-.09-.14h0A.21.21,0,0,0,9.54,6a.36.36,0,0,0,0-.1A.54.54,0,0,0,9,5.73l-.16,0h0l0,0h0a.68.68,0,0,1,.2,0,.61.61,0,0,1,.54.24.31.31,0,0,1,0,.33l.06.09Zm-.07-.14.08.13,0,0-.06-.09h0A.32.32,0,0,0,9.6,6a.27.27,0,0,0,0-.12A.6.6,0,0,0,9,5.68a.52.52,0,0,0-.18,0l0,0H9a.54.54,0,0,1,.49.22.16.16,0,0,1,0,.1A.27.27,0,0,1,9.47,6.23Z"/></g><g ><path d="M9.44,5.78a.3.3,0,0,1,.14.13.28.28,0,0,1,0,.13.32.32,0,0,1-.08.2l.05.08a.34.34,0,0,0,.08-.21.38.38,0,0,0-.22-.33" style="fill:#c8b100"/></g><g ><path d="M9.58,6.33l-.06-.09h0A.32.32,0,0,0,9.6,6a.27.27,0,0,0,0-.12.34.34,0,0,0-.13-.14h0a.38.38,0,0,1,.21.34.33.33,0,0,1-.07.21Zm0-.09,0,.07a.31.31,0,0,0,.07-.2.37.37,0,0,0-.08-.22v0a.28.28,0,0,1,0,.13A.31.31,0,0,1,9.54,6.24Z"/></g><g ><path d="M7.94,6.05A.06.06,0,0,1,8,6a.05.05,0,0,1,.06.06.06.06,0,0,1-.12,0" style="fill:#fff"/></g><g ><path d="M8,6.11a.07.07,0,0,1-.07-.06.07.07,0,0,1,.14,0A.07.07,0,0,1,8,6.11ZM8,6a.06.06,0,0,0,0,.06.05.05,0,0,0,0,0,.06.06,0,0,0,.06,0A.06.06,0,0,0,8,6Z"/></g><g ><path d="M7.94,5.93a.06.06,0,0,1,.06,0s.06,0,.06,0a.06.06,0,0,1-.12,0" style="fill:#fff"/><path d="M8,6a.07.07,0,0,1-.07-.07.07.07,0,0,1,.14,0A.07.07,0,0,1,8,6Zm0-.12A0,0,0,0,0,8,6a.05.05,0,1,0,0-.1Z"/></g><g ><path d="M8,5.81a0,0,0,1,1,0,.05,0,0,0,0,1,0-.05" style="fill:#fff"/><path d="M8,5.86a0,0,0,0,1,0-.1.05.05,0,1,1,0,.1Zm0-.09a0,0,0,0,0,0,.08,0,0,0,0,0,0-.08A0,0,0,0,0,8,5.77Z"/></g><g ><path d="M8,5.7a0,0,0,0,1,0,0s0,0,0,0a0,0,0,0,1,0,0s0,0,0,0" style="fill:#fff"/><path d="M8,5.74a0,0,0,0,1,0-.08,0,0,0,0,1,0,.08A0,0,0,0,1,8,5.74Zm0-.06,0,0a0,0,0,0,0,0,0,0,0,0,0,0,0,0S8,5.68,8,5.68Z"/></g><g ><path d="M8,5.61a0,0,0,0,1,0,0,0,0,0,0,1,0,0s0,0,0,0l0,0" style="fill:#fff"/><path d="M8,5.64a0,0,0,0,1,0,0s0,0,0,0a0,0,0,0,1,0,0A0,0,0,0,1,8,5.64Zm0,0s0,0,0,0H8S8,5.59,8,5.59Z"/></g><g ><path d="M8,6.39h0a.09.09,0,0,0,0,0,.16.16,0,0,0,.3,0s0-.06,0,0v0a.15.15,0,0,0,.16.13.16.16,0,0,0,.16-.15v0l0,0,0,.06a.17.17,0,0,0,0,.07.14.14,0,0,0,.15.14A.14.14,0,0,0,9,6.62l0,0v0a.09.09,0,0,0,.07.1.25.25,0,0,0,.13-.05l.12-.11v.06a.48.48,0,0,1-.13.13.28.28,0,0,1-.13,0A.15.15,0,0,1,9,6.71a.2.2,0,0,1-.11,0,.22.22,0,0,1-.2-.12.26.26,0,0,1-.17.07.27.27,0,0,1-.18-.08.25.25,0,0,1-.15,0A.22.22,0,0,1,8,6.57a.23.23,0,0,1-.19.09.28.28,0,0,1-.16,0,.23.23,0,0,1-.18.08.23.23,0,0,1-.17-.08.21.21,0,0,1-.2.13.2.2,0,0,1-.11,0,.15.15,0,0,1-.1.09.28.28,0,0,1-.13,0,.48.48,0,0,1-.13-.13V6.57a.6.6,0,0,0,.11.1.22.22,0,0,0,.13.06A.09.09,0,0,0,7,6.63v0l0,0a.17.17,0,0,0,.12.06.14.14,0,0,0,.15-.14.15.15,0,0,0,0-.07l0-.06,0,0v0a.16.16,0,0,0,.16.15.15.15,0,0,0,.16-.13v0s0,0,0,0a.16.16,0,0,0,.3,0v0H8" style="fill:#c8b100"/><path d="M9.13,6.8h0A.12.12,0,0,1,9,6.72a.2.2,0,0,1-.11,0,.24.24,0,0,1-.21-.11.23.23,0,0,1-.16.06.23.23,0,0,1-.18-.08.23.23,0,0,1-.34,0,.25.25,0,0,1-.19.09.23.23,0,0,1-.16-.06.23.23,0,0,1-.18.08.23.23,0,0,1-.16-.06.24.24,0,0,1-.21.11L7,6.72a.12.12,0,0,1-.1.08.2.2,0,0,1-.14,0,.41.41,0,0,1-.12-.13h0V6.57l.11.1a.17.17,0,0,0,.13,0S7,6.68,7,6.63V6.56l0,.05a.13.13,0,0,0,.12.06.14.14,0,0,0,.14-.13.35.35,0,0,0,0-.06h0l0-.07.06.06h0v0a.15.15,0,0,0,.15.14.14.14,0,0,0,.15-.12h0v0h0s0,0,0,0h0a.16.16,0,0,0,.3,0,.09.09,0,0,0,0,0h.09v0a.14.14,0,0,0,.15.14.16.16,0,0,0,.14-.09h0s0,0,0,0h0s0,0,0,0h0a.14.14,0,0,0,.15.12.15.15,0,0,0,.15-.14v0h0l.06-.06,0,.07h0a.08.08,0,0,0,0,.06.15.15,0,0,0,.15.14A.17.17,0,0,0,9,6.62l0-.06v.07s0,.09.06.09h0a.25.25,0,0,0,.13,0l.11-.1v.06h0s-.07.1-.13.13A.28.28,0,0,1,9.13,6.8ZM9,6.7H9a.14.14,0,0,0,.09.08.22.22,0,0,0,.13,0,.28.28,0,0,0,.12-.13v0a.91.91,0,0,1-.1.1.26.26,0,0,1-.14.06s-.07,0-.07-.11v0l0,0a.17.17,0,0,1-.13.07.16.16,0,0,1-.16-.15s0,0,0-.07l0,0,0,0v0a.16.16,0,0,1-.16.15.15.15,0,0,1-.16-.13v0a.15.15,0,0,1-.15.11A.17.17,0,0,1,8,6.45a.09.09,0,0,1,0,0H8a.06.06,0,0,1,0,0,.16.16,0,0,1-.16.16.16.16,0,0,1-.16-.11v0a.15.15,0,0,1-.16.12.16.16,0,0,1-.16-.15v0l0,0,0,0a.15.15,0,0,1,0,.07.16.16,0,0,1-.16.15A.17.17,0,0,1,7,6.62l0,0v0c0,.06,0,.1-.07.1a.17.17,0,0,1-.13-.05.58.58,0,0,1-.11-.1v0a.34.34,0,0,0,.12.13.22.22,0,0,0,.13,0A.13.13,0,0,0,7,6.7H7a.2.2,0,0,0,.11,0,.22.22,0,0,0,.2-.12h0a.2.2,0,0,0,.16.07.21.21,0,0,0,.17-.08h0a.23.23,0,0,0,.16.06A.22.22,0,0,0,8,6.56H8a.23.23,0,0,0,.19.1.22.22,0,0,0,.15-.06h0a.21.21,0,0,0,.17.08.2.2,0,0,0,.16-.07h0A.22.22,0,0,0,9,6.7Z"/></g><g ><path d="M9.09,6.59a0,0,0,0,0,0-.06s0,0-.05,0a.06.06,0,0,0,0,.06.06.06,0,0,0,.06,0" style="fill:#fff"/><path d="M9,6.63H9l0,0v0s0-.05.06,0h0a0,0,0,0,1,0,0h0A.05.05,0,0,1,9,6.63Zm0-.09a.05.05,0,0,0,0,0v0H9s0,0,0,0,0,0,0,0h0Z"/></g><g ><path d="M8.4,6.46s0-.06,0-.06a0,0,0,0,0,0,0s0,0,0,0,0,0,0,0" style="fill:#fff"/><path d="M8.36,6.51h0l0,0,0,0s0-.06,0,0h0a.07.07,0,0,1,0,0h0S8.39,6.51,8.36,6.51Zm0-.1s0,0,0,0,0,0,0,0h0s0,0,0,0h0s0,0,0,0Z"/></g><g ><path d="M7.61,6.46s0-.06,0-.06a0,0,0,0,1,0,0,0,0,0,0,1,0,0s0,0,0,0" style="fill:#fff"/><path d="M7.65,6.51s0,0-.05,0h0a.07.07,0,0,1,0,0h0s0,0,.05,0,0,0,0,0l0,0Zm0,0s0,0,0,0h0s0,0,0,0a0,0,0,0,0,0,0h0s0,0,0,0Z"/></g><g ><path d="M6.92,6.59s0,0,0-.06a.05.05,0,0,1,0,0,.06.06,0,0,1,0,.06.06.06,0,0,1-.06,0" style="fill:#fff"/><path d="M7,6.63a.05.05,0,0,1,0,0h0a0,0,0,0,1,0,0h0s0,0,.06,0a0,0,0,0,1,0,0l0,0Zm0,0a.05.05,0,0,0,0,0H7v0s0,0,0,0h0Z"/></g><g ><path d="M7.22,6.13a.2.2,0,0,1,.08.1s0,0,0,0h0s0,0,0,0a.28.28,0,0,1,0,.08.08.08,0,0,1,0,0h0s0,0,0,0l0,0a.11.11,0,0,1,0-.06l0,0h.07a.17.17,0,0,1,0-.12" style="fill:#c8b100"/><path d="M7.22,6.4h0l0,0,0,0v0a.15.15,0,0,0,0,0h.06a.15.15,0,0,1,0-.11h0a.14.14,0,0,1,.08.09l0,0h0a.2.2,0,0,0,0,0h0s0,0,0,.06l0,0h0l0,0,0,0Zm-.09-.16,0,0v0l0,0,0,0s0,0,0,0h0l0,0V6.21h0v0a.15.15,0,0,0-.07-.09.2.2,0,0,0,0,.11H7.13Z"/></g><g ><path d="M7.24,6.46s0,0,0,0,0,0,0,0l-.06,0h-.1l0,0a.13.13,0,0,0-.1.07.2.2,0,0,0,.11,0v0h0l.07,0,0,0" style="fill:#c8b100"/><path d="M7.08,6.55h0v0a.27.27,0,0,1-.12,0H7a.23.23,0,0,1,.1-.07h0v0h.11l.06,0h0a0,0,0,0,0,0,0s0,0,0,0h0l0,0-.07,0h0Zm0-.06h0v0h0s0,0,.06,0l.05,0s0,0,0,0v0l0,0h-.1l0,0h0A.15.15,0,0,0,7,6.46a.19.19,0,0,0,.1,0Z"/></g><g ><path d="M7.33,6.44s0,0,0,0l0,0,.05,0,.07,0h0v0a0,0,0,0,1,0,0,.16.16,0,0,1,.12,0,.17.17,0,0,1-.1.06l0,0h-.1l-.06,0" style="fill:#c8b100"/><path d="M7.51,6.48H7.38l-.06,0h0a0,0,0,0,0,0,0s0,0,0,0h0l.05,0,.06,0h0v0a.14.14,0,0,1,.11,0h0a.23.23,0,0,1-.1.07h0v0Zm-.17,0,0,0h.09v0h0a.15.15,0,0,0,.09-.06.19.19,0,0,0-.1,0h0v0h0a.11.11,0,0,0-.07,0l0,0s0,0,0,0Z"/></g><g ><path d="M7.21,6.41a.06.06,0,0,1,.06-.06.07.07,0,0,1,.07.06.07.07,0,0,1-.07.07.07.07,0,0,1-.06-.07" style="fill:#ad1519"/><path d="M7.28,6.49a.08.08,0,0,1-.08-.08.07.07,0,0,1,.08-.07.07.07,0,0,1,.07.07A.08.08,0,0,1,7.28,6.49Zm0-.13s-.07,0-.07,0,0,.06.07.06a.06.06,0,0,0,.06-.06A.06.06,0,0,0,7.28,6.36Z"/></g><g ><path d="M8,6a.19.19,0,0,1,.07.12s0,0,0,0h0l0,0s0,0,0,.08a.14.14,0,0,1,0,.06L8,6.29l0,0a.14.14,0,0,1,0-.06s0-.07,0-.08l0,0h0s0,0,0,0A.23.23,0,0,1,8,6" style="fill:#c8b100"/><path d="M8.06,6.32h0a.05.05,0,0,0-.05,0,.05.05,0,0,0,0,0H8l0,0s0,0,0-.06v0l0,0h.07A.16.16,0,0,1,8,6H8a.27.27,0,0,1,.06.12h.07l0,0v0s0,0,0,.06l0,0Zm-.18-.19s0,0,0,0v0s0,0,0,.06l0,0,0,0,.06,0,0,0a.43.43,0,0,1,0,0v0l0,0H8.07v0A.14.14,0,0,0,8,6a.16.16,0,0,0,0,.11v0H7.88Z"/></g><g ><path d="M8,6.39a.05.05,0,0,1,0,0l0,0-.06,0-.08,0h0v0l0,0a.21.21,0,0,0-.13,0,.22.22,0,0,0,.13.06l0,0v0h0l.08,0,.06,0" style="fill:#c8b100"/><path d="M7.76,6.47h0v0a.17.17,0,0,1-.12,0h0a.23.23,0,0,1,.12-.06v0h0l.08,0a.14.14,0,0,1,.07,0H8l0,0a.05.05,0,0,0,0,0H8l-.07,0-.08,0h0Zm-.09-.12a.18.18,0,0,0,.12.05h0a0,0,0,0,0,0,0h0l.08,0,.05,0s0,0,0,0a.06.06,0,0,1,0,0l-.05,0-.08,0h0a0,0,0,0,0,0,0h0A.18.18,0,0,0,7.67,6.35Z"/></g><g ><path d="M8.06,6.39s0,0,0,0a.06.06,0,0,0,0,0l.06,0,.08,0h0v0a.1.1,0,0,1,0,0,.17.17,0,0,1,.12,0,.17.17,0,0,1-.12.06,0,0,0,0,1,0,0v0h0l-.08,0-.06,0" style="fill:#c8b100"/><path d="M8.25,6.47H8.2l-.09,0-.06,0h0a.05.05,0,0,0,0,0l0,0h0l.07,0,.08,0h.05v0s0,0,0,0a.27.27,0,0,1,.12.06h0a.18.18,0,0,1-.12,0v0Zm-.19-.08.06,0,.08,0h0v0h0a.21.21,0,0,0,.12-.05.21.21,0,0,0-.12,0h0v0h0l-.08,0,0,0s0,0,0,0A.05.05,0,0,1,8.06,6.39Z"/></g><g ><path d="M8.79,6.13a.18.18,0,0,0-.07.1l0,0h0s0,0,0,0a.28.28,0,0,0,0,.08.08.08,0,0,0,0,0h.05s0,0,0,0l0,0a.11.11,0,0,0,0-.06l0,0H8.82a.17.17,0,0,0,0-.12" style="fill:#c8b100"/><path d="M8.79,6.4h0l0,0s0,0-.05,0h0l0,0a.43.43,0,0,0,0-.05V6.2h.06a.18.18,0,0,1,.08-.09h0a.15.15,0,0,1,0,.11h.06a.14.14,0,0,1,0,0v0l0,0,0,0Zm0-.05h0s0,0,0,0l0,0,0,0v0l0,0H8.82a.2.2,0,0,0,0-.11.2.2,0,0,0-.07.09v0H8.66v.11l0,0Z"/></g><g ><path d="M8.77,6.46l0,0s0,0,0,0l.06,0H9v0A.15.15,0,0,1,9,6.46a.15.15,0,0,1-.11,0v0h0l-.07,0-.05,0" style="fill:#c8b100"/><path d="M8.93,6.55h0l-.07,0a.11.11,0,0,1-.05,0h0s0,0,0,0a0,0,0,0,0,0,0h0l.06,0H9v0H9A.31.31,0,0,1,9,6.46H9l-.11,0v0Zm-.15-.09.05,0s.05,0,.06,0h0v0h0a.19.19,0,0,0,.1,0,.16.16,0,0,0-.08-.06h0l0,0h-.1l0,0s0,0,0,0S8.79,6.45,8.78,6.46Z"/></g><g ><path d="M8.68,6.44s0,0,0,0,0,0,0,0l0,0-.07,0h0v0a.12.12,0,0,0-.12,0,.17.17,0,0,0,.1.06l0,0h.11l0,0" style="fill:#c8b100"/><path d="M8.5,6.48h0v0h0a.16.16,0,0,1-.09-.07h0a.14.14,0,0,1,.11,0v0h.05l.06,0s0,0,0,0h0s0,0,0,0a0,0,0,0,0,0,0h0l-.06,0H8.5Zm-.05-.11a.15.15,0,0,0,.09.06h0s0,0,0,0h.09l.06,0s0,0,0,0,0,0,0,0l0,0a.11.11,0,0,0-.07,0h0v0h0A.2.2,0,0,0,8.45,6.37Z"/></g><g ><path d="M8.67,6.41a.07.07,0,0,1,.07-.06.06.06,0,0,1,.06.06.07.07,0,0,1-.06.07.07.07,0,0,1-.07-.07" style="fill:#ad1519"/><path d="M8.73,6.49a.08.08,0,0,1-.07-.08.07.07,0,0,1,.07-.07.07.07,0,0,1,.08.07A.08.08,0,0,1,8.73,6.49Zm0-.13a.06.06,0,0,0-.06,0,.06.06,0,0,0,.06.06s.07,0,.07-.06S8.77,6.36,8.73,6.36Z"/></g><g ><path d="M9.44,6.56s0,0-.07,0,0,0,0,.07.05,0,.08,0a0,0,0,0,0,0-.07" style="fill:#ad1519"/><path d="M9.38,6.66s0,0,0,0,0,0,0,0,0,0,0-.05a.07.07,0,0,1,.09,0h0a0,0,0,0,1,0,0s0,0,0,0Zm0-.1h0s0,0,0,0v0a0,0,0,0,0,.07,0s0,0,0,0v0h0Z"/></g><g ><path d="M9.34,6.6l0,0s.06,0,.07,0h0a.21.21,0,0,1,.07-.09.39.39,0,0,1,.12,0,.09.09,0,0,0-.1-.09.09.09,0,0,0-.08,0v0a.1.1,0,0,0-.06.06.22.22,0,0,0,0,.12.15.15,0,0,0,0,0,.16.16,0,0,0-.08,0l0,0v0a.24.24,0,0,0-.12,0,.15.15,0,0,0,.08.08l0,0v0h.18" style="fill:#c8b100"/><path d="M9.28,6.62H9.17l0,0a.27.27,0,0,1-.08-.07h0a.25.25,0,0,1,.12,0v0h0l0,0s.06,0,.08.06h0a.19.19,0,0,1,0-.08.1.1,0,0,1,.06-.06h0v0a.19.19,0,0,1,.08,0,.1.1,0,0,1,.1.1h0a.23.23,0,0,0-.11,0,.44.44,0,0,0-.08.09h0a0,0,0,0,0-.07,0l0,0H9.28Zm-.11,0h0s.06,0,.08,0h.05l0,0h0l0,0-.08,0,0,0h0s0,0,0,0h0a.2.2,0,0,0-.11,0,.11.11,0,0,0,.07.06h0l0,0Zm.24,0,0,0h0a.28.28,0,0,1,.07-.09.15.15,0,0,1,.11,0,.08.08,0,0,0-.09-.08.08.08,0,0,0-.07,0h0v0a.08.08,0,0,0,0,0,.16.16,0,0,0,0,.12Z"/></g><g ><path d="M6.67,6.6l0,0a0,0,0,0,0-.07,0h0a.21.21,0,0,0-.07-.09.31.31,0,0,0-.11,0,.09.09,0,0,1,.09-.09.09.09,0,0,1,.08,0v0a.1.1,0,0,1,.06.06.22.22,0,0,1,0,.12.15.15,0,0,1,0,0,.16.16,0,0,1,.08,0l0,0v0a.24.24,0,0,1,.12,0,.15.15,0,0,1-.08.08l0,0v0H6.67" style="fill:#c8b100"/><path d="M6.73,6.62H6.66l0,0a0,0,0,0,0-.07,0h0a.28.28,0,0,0-.08-.08s-.1,0-.1,0h0a.1.1,0,0,1,.1-.1.19.19,0,0,1,.08,0v0h0a.14.14,0,0,1,.07.07.11.11,0,0,1,0,.08h0s.07,0,.08-.06l0,0h0v0a.25.25,0,0,1,.12,0h0a.19.19,0,0,1-.08.07l0,0H6.73Zm-.06,0h0s.06,0,.08,0h0l0,0h0a.14.14,0,0,0,.07-.06.2.2,0,0,0-.11,0h0s0,0,0,0h0s0,0,0,0l-.08,0,0,0h0A.05.05,0,0,1,6.67,6.6ZM6.4,6.46h.09a.28.28,0,0,1,.07.09h0a0,0,0,0,1,0,0,.23.23,0,0,0,0-.12.12.12,0,0,0-.06,0v0h0a.11.11,0,0,0-.08,0,.09.09,0,0,0-.09.08Z"/></g><g ><path d="M6.57,6.56a0,0,0,0,1,.07,0s0,0,0,.07a0,0,0,0,1-.07,0s0,0,0-.07" style="fill:#ad1519"/><path d="M6.63,6.66l0,0,0,0s0,0,0,0h0s0,0,.08,0,0,0,0,.05v0A.05.05,0,0,1,6.63,6.66Zm0-.1h0v0l0,0s0,0,.07,0v0s0,0,0,0Z"/></g><g ><path d="M7.93,6.35s0-.06.07-.06a.07.07,0,0,1,.07.06A.07.07,0,0,1,8,6.42a.08.08,0,0,1-.07-.07" style="fill:#ad1519"/><path d="M8,6.42a.07.07,0,0,1,0-.14.07.07,0,1,1,0,.14Zm0-.13a.06.06,0,0,0-.06.06A.06.06,0,0,0,8,6.41s.07,0,.07-.06A.07.07,0,0,0,8,6.29Z"/></g><g ><path d="M7.86,5.35a.14.14,0,0,1,.28,0,.14.14,0,1,1-.28,0" style="fill:#005bbf"/><path d="M8,5.49a.14.14,0,0,1-.14-.14A.13.13,0,0,1,8,5.22a.14.14,0,1,1,0,.27Zm0-.27a.14.14,0,0,0-.14.13A.13.13,0,0,0,8,5.48a.13.13,0,0,0,.14-.13A.13.13,0,0,0,8,5.22Z"/></g><g ><path d="M8,5v.07H7.89v.07H8v.22h-.1a.13.13,0,0,0,0,.06h.26a.13.13,0,0,0,0-.06H8V5.12h.08V5.05H8V5Z" style="fill:#c8b100"/><path d="M8.14,5.41H7.87a.13.13,0,0,1,0-.06H8v-.2H7.88V5.05H8V5h.09v.08h.07v.08H8.05v.2h.1a.14.14,0,0,1,0,.06Zm0,0Zm-.27,0h.26a.07.07,0,0,0,0-.05H8V5.12h.07V5.05H8V5H8v.07H7.89v.07H8v.22H7.86A.43.43,0,0,0,7.87,5.4Z"/></g><g ><path d="M8,11a2.77,2.77,0,0,1-1.19-.27.77.77,0,0,1-.42-.68V9H9.62v1.07a.76.76,0,0,1-.43.68A2.68,2.68,0,0,1,8,11" style="fill:#ccc"/></g><g ><path d="M8,11H8a2.7,2.7,0,0,1-1.19-.28.75.75,0,0,1-.43-.68V9H9.63v1.08a.76.76,0,0,1-.43.68A2.73,2.73,0,0,1,8,11ZM6.41,9v1.06a.76.76,0,0,0,.43.67A2.79,2.79,0,0,0,8,11a2.67,2.67,0,0,0,1.17-.27.75.75,0,0,0,.42-.67V9Z"/></g><g ><path d="M8,9H9.62V7.22H8Z" style="fill:#ccc"/></g><g ><path d="M9.63,9H8V7.21H9.63V9ZM8,9H9.61V7.22H8Z"/></g><g ><path d="M8,10.07a.81.81,0,0,1-1.61,0V9H8v1.07" style="fill:#ad1519"/></g><g ><path d="M6.76,10.69a.48.48,0,0,0,.19.09V9H6.76Z" style="fill:#c8b100"/><path d="M7,10.8H7a.51.51,0,0,1-.17-.07l0,0h0V9H7Zm-.2-.11,0,0a.52.52,0,0,0,.15.06V9H6.76Z"/></g><g ><path d="M6.4,10.05a.82.82,0,0,0,.18.5V9H6.4v1.08Z" style="fill:#c8b100"/><path d="M6.58,10.56h0a.87.87,0,0,1-.19-.51h0V9h.2v1.58h0Zm-.17-.51a.76.76,0,0,0,.17.48V9H6.41Z"/></g><g ><path d="M7.11,10.82H7.3V9H7.11Z" style="fill:#c7b500"/><path d="M7.21,10.84h-.1V9h.2v1.88h-.1Zm-.09,0h.17V9H7.12Z"/></g><g ><path d="M7.47,10.78a.68.68,0,0,0,.19-.08V9H7.47v1.82Z" style="fill:#c8b100"/><path d="M7.46,10.79h0V9h.21V10.7h0a.57.57,0,0,1-.19.08ZM7.48,9v1.8a.61.61,0,0,0,.18-.07V9Z"/></g><g ><path d="M6.4,9H8V7.22H6.4Z" style="fill:#ad1519"/></g><g ><path d="M8,9H6.4V7.21H8ZM6.41,9H8V7.22H6.41Z"/></g><g ><path d="M7.83,10.54A.68.68,0,0,0,8,10.13V9H7.83Z" style="fill:#c8b100"/><path d="M7.83,10.55V9H8v1.18a.75.75,0,0,1-.18.41ZM7.84,9v1.55A.7.7,0,0,0,8,10.13V9Z"/></g><g ><path d="M7.21,10.84a.79.79,0,0,1-.81-.77V9H8v1.08A.79.79,0,0,1,7.21,10.84ZM6.41,9v1.06a.8.8,0,0,0,1.59,0V9Z"/></g><g ><path d="M9.62,9v1.07a.81.81,0,0,1-1.61,0V9H9.62" style="fill:#ad1519"/></g><g ><path d="M8.81,10.84A.8.8,0,0,1,8,10.07V9H9.63v1.08A.8.8,0,0,1,8.81,10.84ZM8,9v1.06a.78.78,0,0,0,.8.75.77.77,0,0,0,.79-.75V9Z"/></g><g ><path d="M8.3,9.8v0a0,0,0,0,1-.08,0H8.18v0a.09.09,0,0,0,.06.08V10H8.3V9.9l0-.05H8.5v0H8.3M9,9.8v0H8.89L9,10l0,0L8.84,9.9h0v.29H8.78V9.9h0l-.16.17,0,0,.15-.18H8.59v0Zm.08,0v0h.15a.1.1,0,0,0,.06.05V10h0V9.9a.08.08,0,0,0,.06-.08v0h0v0a0,0,0,0,1,0,0s0,0,0,0h-.2m-.22.74.12,0,0,0a.37.37,0,0,1-.14,0,.1.1,0,0,1-.09.07.08.08,0,0,1-.08-.07.42.42,0,0,1-.16,0l0,0,.13,0a.1.1,0,0,1,0,0v-.23h.06v.23a.07.07,0,0,1,.05,0Zm-.37-.07,0,0a.4.4,0,0,1-.12-.1.1.1,0,0,1-.09,0,.08.08,0,0,1,0-.11h0a.43.43,0,0,1,0-.16H8.3a.58.58,0,0,0,0,.14h.05l.14-.16,0,0-.14.15a.07.07,0,0,1,0,.09Zm-.2-.16a0,0,0,0,1,0,0s0,0,0,0,0,0-.06,0A0,0,0,0,1,8.32,10.31Zm-.07-.15H8.2V10l.05,0v.09s0,.06,0,.09ZM8.3,10h0s0,.1,0,.07,0,.08,0,.08l0,0a.28.28,0,0,1,0-.09V10Zm.18.46.16.08,0,0-.14-.07,0,0m0,0a.42.42,0,0,0,.16.09l0,0a.61.61,0,0,1-.14-.07l0-.06m.07-.31.05,0,.1-.11,0,0-.12.13m0,0,0-.05.1-.11.06,0-.12.14m.6.33,0,0,.12-.1a.08.08,0,0,0,.08,0,.07.07,0,0,0,0-.11h0a.75.75,0,0,0,0-.16h0a.57.57,0,0,1,0,.14h0L9.1,10.1l0,0,.13.15a.07.07,0,0,0,0,.09l-.1.09Zm.2-.16s0,0,0,0,0,0,0,0,0,0,0,0A0,0,0,0,0,9.29,10.31Zm.07-.15h.06V10l-.06,0v.09a.28.28,0,0,1,0,.09Zm0-.18H9.26v.08s0,.07,0,.07l.06,0s0-.06,0-.09V10m-.19.46L9,10.52v0l.13-.07,0,0m0,0a.51.51,0,0,1-.16.09l0,0,.13-.07v-.06m-.07-.31-.06,0-.1-.11,0,0,.12.13m0,0,0-.05L9.06,10,9,10l.12.14m-.67-.29V9.9h.15l0-.05H8.46m.7,0,0,.05H9V9.85h.18m-.39.73a0,0,0,0,1,.08,0s0,0,0,0S8.77,10.6,8.77,10.58Zm.07-.26.05,0v-.14l-.05,0v.18m-.06,0,0,0v-.14l0,0v.18" style="fill:#c8b100"/></g><g ><path d="M8.18,9.81a.11.11,0,0,1,.06-.07V9.57H8.3v.17a.06.06,0,0,1,0,.06h0l0,0,0,0H8.18m.41,0h.14v0L8.56,9.6l0,0,.16.19h0V9.5h.06v.24h0L9,9.56l0,0-.17.18s0,0,0,0h-.3Zm.72,0,0,0,0,0h0a.11.11,0,0,0-.06-.07V9.57h0v.17a.09.09,0,0,0-.06.06h.05m-1-.5.2.22,0,0-.2-.22v0H8.5V9.2H8.36a.11.11,0,0,0-.09,0,.07.07,0,0,0-.08.08.08.08,0,0,0,.05.08v.17H8.3V9.31Zm1.06,0v.17h0V9.31h0l-.2.23,0,0,.21-.23H9.11V9.2h.15a.08.08,0,0,1,.08,0,.08.08,0,0,1,.09.08.08.08,0,0,1-.06.08Zm-.53,0v.11H8.78V9.31a.1.1,0,0,1-.06-.05H8.59V9.2h.13a.11.11,0,0,1,.09,0,.08.08,0,0,1,.08,0H9v.06H8.89l-.05.05Zm-.6.13H8.19V9.6h.05V9.44m.06,0h0V9.6h0V9.44m1,0H9.26V9.6h.06V9.44m0,0h.06V9.6H9.37V9.44m-.85,0,.05,0,.1.11,0,0-.12-.13m0,0,0,.05.1.11.06,0L8.48,9.5m.61,0L9,9.44l-.1.11,0,0,.12-.14m0,0,0,0-.1.11L9,9.63l.11-.13m-.67.3V9.74h.15l0,.06H8.46m-.23-.57a0,0,0,1,1,.08,0,0,0,0,0,1-.08,0A0,0,0,0,1,8.23,9.23Zm.41,0,0,.05H8.47l0-.05h.19m0-.06,0,0H8.47l0,0h.19m.52.6,0-.06H9V9.8h.18m.15-.57s0,0,0,0a0,0,0,0,1,0,.08S9.31,9.25,9.31,9.23Zm-.54,0a0,0,0,0,1,0,0s0,0,0,0,0,0,0,0A0,0,0,0,1,8.77,9.23Zm.21,0v.05h.16V9.26H9M9,9.2v0h.16v0H9m-.2.17,0,0v.14l0,0V9.37m.06,0,.05,0v.14l-.05,0V9.37" style="fill:#c8b100"/></g><g ><path d="M8.81,10.66a.09.09,0,0,1-.09-.06.38.38,0,0,1-.1,0l0,0h0l-.13-.07h0v0l-.08-.08a.08.08,0,0,1-.08,0,.09.09,0,0,1,0-.06.08.08,0,0,1,0-.07h0l0-.11H8.19V10l.06,0V9.9a.08.08,0,0,1,0-.16V9.56H8.3v.18a.1.1,0,0,1,.06,0H8.5v.06H8.35s0,0,0,.05V10h.06v.07h0a.26.26,0,0,0,0,.07h0l0,0,0,.08h0l.14-.15.05,0h0l-.13.15a.07.07,0,0,1,0,.09l.05,0,0,0h0a.31.31,0,0,0,.13.06h0v0l.08,0,0,0v-.22h.06v.22l.05,0,.12,0H9l0,.06H9l-.14,0A.09.09,0,0,1,8.81,10.66Zm-.21-.1.13,0h0a.08.08,0,0,0,.16,0h0l.14,0,0,0-.12,0h0a.1.1,0,0,0-.05,0h0v-.22h0v.22h0a.08.08,0,0,0,0,.05h0l-.08,0h0l0,0,0,0Zm-.15,0a.67.67,0,0,0,.12.06l0,0h0l-.07,0h0l0,0Zm.05,0,.07,0,0,0-.07,0Zm.1,0h0l0,0v0a.52.52,0,0,1-.13-.06l0,0,.11.06Zm-.15,0h0l0,0,0,0a.43.43,0,0,1-.1-.09h0a.08.08,0,0,0,0-.09h0l.13-.15,0,0-.14.15H8.33l0-.09h0v0H8.25a.09.09,0,0,0,0,.05h0a.45.45,0,0,0,0,.11h0a.07.07,0,0,0,0,.06.05.05,0,0,0,0,.05.06.06,0,0,0,.07,0h0l.07.07Zm-.25-.34h.05a.06.06,0,0,1,0,0h0V10l-.05,0Zm.11,0v0l0,0v-.06h0V10h0v.08A.13.13,0,0,0,8.31,10.13Zm-.06,0h0V10h0v.08Zm0-.09h0V9.9h0a.07.07,0,0,0,0,0h.14v0H8.35a.08.08,0,0,0,0-.05h0V9.57h0v.17h0a.08.08,0,0,0-.05.07.08.08,0,0,0,.05.08h0Zm.1.35h0a0,0,0,0,1,0,0s0,0,0,0,0,0,.06,0v0a0,0,0,0,1,0,0Zm0-.07h0v0l0,0h0v0s0,0,0,0Zm.49-.11H8.78V9.9h0l-.16.18,0,0h0l.16-.18H8.59V9.79h.14L8.56,9.6l0,0h0l.16.18h0V9.49h.06v.25h0L9,9.56l0,0h0l-.16.18H9v.06H8.89L9,10l0,0H9L8.84,9.9h0Zm-.05,0h0V9.9h0l.16.18,0,0-.15-.18H9v0H8.89s0,0,0,0h0L9,9.59l0,0-.16.18h0V9.5H8.78v.25h0l-.16-.18,0,0,.17.18H8.6v0h.14L8.58,10l0,0,.16-.18h0Zm-.28-.65h0l-.2-.23h0v.18H8.24V9.31a.08.08,0,0,1-.06-.08.09.09,0,0,1,.09-.09.1.1,0,0,1,.09.06h.15v.06H8.36v0l.21.22Zm-.2-.24h0l.2.22,0,0-.2-.22h0v0H8.5v0H8.35a.08.08,0,0,0-.08-.06.09.09,0,0,0-.08.08.08.08,0,0,0,.05.07h0v.17h0V9.31h0Z" style="fill:#c8b100"/></g><g ><path d="M9,10.61l0,0H9l.12-.06,0,0L9,10.53H9l0-.06H9l.13-.07h0l0,0,.06,0a.08.08,0,0,1,0-.09l-.14-.15,0,0,.13.15h0a.19.19,0,0,0,0-.08l-.05,0h0v-.07h0V10h.06V9.9a.08.08,0,0,1-.05-.05H9.11V9.79h.15a.12.12,0,0,1,.05,0V9.62l-.05,0V9.45h.05V9.31h0l-.21.22,0,0h0l.2-.22H9.11V9.2h.15a.09.09,0,0,1,.18,0,.09.09,0,0,1-.06.08v.18h0v.07h.06v.17a.09.09,0,0,1,.06.08.08.08,0,0,1-.07.08V10l.06,0h0v.15H9.37a.36.36,0,0,1,0,.11h0a.14.14,0,0,1,0,.07s0,0,0,.06a.1.1,0,0,1-.09,0l-.08.08,0,0h0L9,10.61Zm0,0,0,0a.34.34,0,0,0,.12-.06v0l0,0h0Zm0-.1v0a.53.53,0,0,0,.15-.08l0,0A.52.52,0,0,1,9,10.47Zm.14,0,0,0,0,0h0l.07-.07h0a.11.11,0,0,0,.08,0,.05.05,0,0,0,0-.05.14.14,0,0,0,0-.06h0a.49.49,0,0,0,0-.11h0v0h0v0h0a.16.16,0,0,1,0,.09h0l-.13-.15,0,0,.14.15h0a.1.1,0,0,0,0,.09h0Zm.27-.36h0v0h0V10l0,0h0v0h0v.08Zm-.11,0,0,0h0V10H9.26v.06h0Zm.06-.1v.08h0a.08.08,0,0,0,0,0v0Zm-.2-.19h.15s0,0,.05.05h0V10h0V9.9h0a.09.09,0,0,0,.06-.08.09.09,0,0,0-.06-.07h0V9.57h0v.18h0s-.05,0-.06.05H9.12v0Zm.14-.25.05,0V9.44l-.05,0ZM9.07,9.5l0,0,.2-.22h0v.17h0V9.31h0a.09.09,0,0,0,.06-.08.09.09,0,0,0-.09-.08.07.07,0,0,0-.07.06H9.12v0h.15Zm.2.87h0v0l0,0a0,0,0,0,1,.06,0h0v0l0,0Zm0-.07h0v0s0,0,0,0,0,0,0,0v0h0Zm-.68-.1-.06,0h0L8.65,10l0,.06h0Zm0,0,0,0,.1-.11,0,0Zm0,0,0-.05h0l.1-.11.06,0h0Zm0-.05,0,0L8.6,10l0,0Zm-.19-.23a0,0,0,0,1,0-.08,0,0,0,0,1,0,.08A0,0,0,0,1,8.27,9.86Zm0-.07a0,0,0,1,0,0,.06,0,0,0,0,0,0-.06A0,0,0,0,0,8.27,9.79Zm0-.17V9.43h0l.06,0V9.6h0Zm0-.18v.17l0,0V9.46Zm-.05.18h0l-.06,0V9.45l.07,0Zm-.06,0,.05,0V9.44l-.05,0Zm.65-.17H8.78V9.31a.1.1,0,0,1-.06-.05H8.59V9.2h.13a.1.1,0,0,1,.09-.06.09.09,0,0,1,.08.06H9v.06H8.89l-.05.05Zm-.06,0h.05v-.1h0a0,0,0,0,0,.05-.05H9v0H8.89a.08.08,0,0,0-.08-.06.08.08,0,0,0-.08.06H8.6v0h.13l0,.05h0Z" style="fill:#c8b100"/></g><g ><path d="M8.81,10.61s0,0,0,0a0,0,0,0,1,.08,0S8.83,10.61,8.81,10.61Zm0-.07s0,0,0,0a0,0,0,0,0,.06,0S8.83,10.54,8.81,10.54Zm0-.22v-.18H8.9v.15Zm0-.17v.16h.05v-.14Zm-.05.17H8.72v-.15h.07Zm-.06,0h0v-.16h0Zm.3-.1H9l-.1-.11L9,10l.13.14Zm-.09-.12.09.11.05,0L9,10.05Zm.19.06h0L9,10l.06,0h0l.1.11h0ZM9,10l.12.12,0,0L9.06,10Zm.14-.1H9l0-.07h.2ZM9,9.9h.14l0-.05H9Zm-.37,0H8.47l0-.07h.19Zm-.15,0h.14V9.85H8.46Zm.86,0a0,0,0,0,1,0-.08,0,0,0,1,1,0,.08Zm0-.07a0,0,0,1,0,0,.06s0,0,0,0S9.36,9.79,9.34,9.79Zm-.17,0H9l0-.06h.16ZM9,9.79h.17v0H9Zm-.33,0h-.2l0-.06h.16Zm-.19,0h.17v0H8.48Zm.08-.13h0l-.1-.11,0-.06h0l.12.13Zm-.09-.11.09.1.05,0-.11-.12Zm.62.11h0L9,9.63l.12-.14,0,0h0ZM9,9.63l.05,0,.09-.11,0,0Zm.35,0V9.43l.06,0V9.6h0Zm0-.18v.17l.05,0V9.46Zm-.73.16-.13-.13.06,0h0l.1.11Zm-.11-.13.11.12,0,0-.1-.1ZM9,9.6l0,0h0L9,9.43H9l.06,0Zm0,0,0,0,.12-.13L9,9.44Zm.2-.24H9l0-.06h.2ZM9,9.31h.14l0-.05H9Zm-.38,0H8.47l0-.06h.19Zm-.15,0h.15V9.26H8.46Zm.87,0a0,0,0,0,1,0-.08,0,0,0,1,1,0,.08Zm0-.07a0,0,0,1,0,0,.06s0,0,0,0S9.36,9.2,9.34,9.2Zm-.53.07a0,0,0,0,1,0-.08,0,0,0,0,1,0,.08Zm0-.07s0,0,0,0,0,0,0,0a0,0,0,0,0,0,0A0,0,0,0,0,8.81,9.2Zm-.54.07a0,0,0,0,1,0-.08,0,0,0,1,1,0,.08Zm0-.07a0,0,0,1,0,0,.06s0,0,0,0S8.29,9.2,8.27,9.2Zm.9,0H9l0-.06h.16ZM9,9.2h.18l0,0H9Zm-.34,0H8.45l0-.06h.15Zm-.18,0h.17v0H8.47Z" style="fill:#c8b100"/></g><g ><path d="M8.83,9.55V9.36l.07,0v.15h0Zm0-.17v.16h.05V9.39Zm-.05.17h0l-.06,0V9.38h.07Zm-.06,0h0V9.38h0Z" style="fill:#c8b100"/></g><g ><path d="M8.72,9.82a.09.09,0,0,1,.18,0,.09.09,0,0,1-.18,0" style="fill:#058e6e"/></g><g ><path d="M8.83,7.66v0H8.76l-.08,0-.06,0a.14.14,0,0,0-.07,0l.06,0a.22.22,0,0,0,.06.05h.16" style="fill:#db4446"/></g><g ><path d="M8.84,7.66H8.67s0,0-.07-.05l0,0h0a.11.11,0,0,1,.08,0l0,0v0l.08,0h.08v0Zm-.07,0h.05v0H8.75l-.07,0,0,0s0,0,0,0H8.56a.09.09,0,0,1,0,0,.12.12,0,0,0,.06,0s.05,0,.07,0Z"/></g><g ><path d="M9.07,7.58v.1a0,0,0,0,0,0,0v0l0,0H9v0a.06.06,0,0,0,0,0l0,0v0a.07.07,0,0,0,0,0l0,0s0,0,0,0a.12.12,0,0,1,0,0l0,0a.08.08,0,0,0,0,0,.13.13,0,0,1,0,.06V8L9,8l0,0L9,8A.29.29,0,0,0,9,8.13s.07.12.17.1.07-.16,0-.22a.8.8,0,0,1,0-.16.65.65,0,0,0,0-.11.19.19,0,0,1,0-.1.22.22,0,0,1,0-.08s0,0,0,0v0l0,0v.05a.15.15,0,0,1,0-.06l.07,0v0s0,.06,0,.08l-.05.07H9.4l0,0s0,0,0,.08,0,0-.05,0,0,.14,0,.15.06.15.06.19a.17.17,0,0,1-.05.15s-.1,0-.11,0a.1.1,0,0,0,0,.09c0,.06,0,.07,0,.08l0,0,0,0s0,0,0,0,0,0,0,.06l0,.08a.06.06,0,0,0,0,0s0,0,0,0H9.1s0,0,0,0v0h0s0,0,0,0l0,0,0,0,0,0H9v0s0,0,0,0,0,0,0,0l0,0s0,0,0,0l0,0v0l0,0,0,0v0s0,0,0,0l0,0,0,0s0,0,0,0V8.42l0,0h0s0,0-.05,0,0,0,0,.09a.26.26,0,0,1,0,.07l0,0H8.69s0,0,0,0,0,0,0,0h0s0,0,0,0l0,0s0,0,0,0h0s0,0,0,0,0,0,0,0h0s0,0,0,0,0,0,0,0l0,0,0,0s0,0,0,.05a.06.06,0,0,0,.07,0h0V8.4l0,0v0a.1.1,0,0,0,0,0s0,0,0,0v0a.08.08,0,0,1,0-.05s0-.06,0-.07a.06.06,0,0,1,.06-.05h.16l-.12-.06-.06-.07a.15.15,0,0,1,0,0h0l0,0,0,0V8.06a.15.15,0,0,1,0,.06l-.05,0v0a.1.1,0,0,1,0,0l0,0-.06,0v0H8.37s0,0,0,0l0,0H8.33s0,0,0,0v0h0s0,0,0,0l0,0,0,0s0,0,0,0l0,0s.07,0,.07,0l0,0,.05,0,0,0,0,0-.06,0-.06,0h0l0,0h0l0,0h0a.07.07,0,0,1,0,0h0s0,0,0,0l0,0,0,0h0s0,0,0,0h0s0,0,0,0h0l0,0,0,0s0,0,0,0,0,0,0,0l0,0a.06.06,0,0,0,0,0s0,0,0,0,0,0,0,0h0l0,0a.07.07,0,0,0,0,0l0,0,.06,0,.07,0h.15s0,0,0,0,0,0,0,0,0,0,0,0,.05,0,.06,0,0-.05,0-.06-.06,0-.06,0,0,0,0,0h.11l0,0h.05l.09,0,.07.07" style="fill:#ed72aa"/><path d="M9.1,8.78h0s0,0,0,0h0s0,0,0,0H9a0,0,0,0,1,0,0H9v0H9s0,0,0,0H9s0,0,0,0h0a0,0,0,0,0,0,0l0,0h0v0l0,0,0,0a0,0,0,0,1,0,0H9v0l0,0H9l0,0v0s0-.05,0-.06l0,0H8.85s0,0,0,.09h0a.21.21,0,0,1,0,.06l0,0H8.67a0,0,0,0,1,0,0H8.59v0h0s0,0,0,0,0,0,0,0v0h.06v0h0l0,0s0,0,0,0h0s0,0,0,0,0,0,0,0v0a.07.07,0,0,0,.06,0h0v0h0v0h0V8.39h0v0h0a.05.05,0,0,1,0-.05V8.3h0a.06.06,0,0,1,.06,0h.14l-.1-.05a.46.46,0,0,1-.07-.07.11.11,0,0,1,0,0h0l0,0,0,0h0v0l0,0-.05,0h0v0H8.44v0a0,0,0,0,1,0,0,0,0,0,0,1,0,0H8.37v0h0v0h0l0,0V8h0s0,0,0,0h0V8h.08l0,0h0l0,0,0,0h0l0,0-.06,0h0s0,0,0,0H8.34a.07.07,0,0,1,0,0h0v0H8.3s0,0,0,0h0a0,0,0,0,1,0,0h0l0,0,0,0h0l0,0h0l0,0h0v0a0,0,0,0,1,0,0h.08l0,0a0,0,0,0,0,0,0l0,0h0l0,0h0l.05,0h.15l0,0h0l0,0s0,0,0,0,0,0,0,0h0s0,0,0,0,0-.05,0-.05h0a.06.06,0,0,1-.06,0v0a0,0,0,0,1,0,0h.11a0,0,0,0,0,0,0l.06,0h0L9,7.51l.08.07h0v.08s0,0,0,0h0v0h0l0,0h0v0l0,0h0s0,0,0,0a.13.13,0,0,1,0,0v0l0,0h0a0,0,0,0,1,0,0,.12.12,0,0,1,0,0v0H9l0,0H9v0A.54.54,0,0,1,9,8V8L9,8H9A.47.47,0,0,0,9,8.13H9s.07.11.16.09a.1.1,0,0,0,.05,0,.2.2,0,0,0,0-.17.8.8,0,0,1,0-.16.11.11,0,0,1,0,0s0,0,0-.06a.49.49,0,0,1,0-.11s0,0,0-.06h0V7.47h0a.12.12,0,0,1,0,0h0a0,0,0,0,1,0,0h0l.05,0h0a.81.81,0,0,1,0,.09l-.05,0h.06l-.05.05,0,0v0s0,0,0,0h0s0,.13,0,.15V8a.64.64,0,0,1,.06.15h0a.19.19,0,0,1-.06.16.13.13,0,0,1-.08,0h0a.08.08,0,0,0,0,.08.08.08,0,0,0,0,.07h0v0s0,0,0,0,0,0,0,0l0,0a.31.31,0,0,0,0,.08h0v0s0,0,0,0H9.1Zm0-.06s0,0,0,0h0s0,0,0,0h.06l0,0s0,0,0-.05h0s0-.06,0-.08l0,0s0,0,0,0v0h0s0,0,0-.08,0-.09,0-.09h0s.06,0,.08,0a.16.16,0,0,0,.05-.15h0A.86.86,0,0,0,9.26,8s0,0,0,0,0-.13,0-.16h0a.08.08,0,0,0,0,0,0,0,0,0,0,0,0l0,0,0,0H9.33l.06-.07s0,0,0-.06l-.05,0h0s0,.05,0,.05h0s0,0,0-.05v0s0,0,0,0h0v0l0,.06a.33.33,0,0,0,0,.1.18.18,0,0,1,0,.06.43.43,0,0,1,0,0,.64.64,0,0,0,0,.15.25.25,0,0,1,0,.19.07.07,0,0,1-.06,0c-.09,0-.14-.05-.17-.09H9A.47.47,0,0,1,9,8s0,0,0,0H9v0a.35.35,0,0,0,0-.06v0H9l0,0,0,0v0a.07.07,0,0,0,0,0H9l0,0h0v0s0,0,0,0h0l0,0v0h0l0,0h0v0h0v0a0,0,0,0,0,0,0,.1.1,0,0,1,0,0A.15.15,0,0,0,9,7.52a.28.28,0,0,0-.08,0H8.85v0H8.73s0,0,0,0v0a.06.06,0,0,0,0,0h0s0,0,0,.06,0,0-.07,0h0l0,0h0l0,0H8.58l-.05,0h0l0,0h0a.1.1,0,0,1,0,0,0,0,0,0,1,0,0l0,0H8.38a0,0,0,0,0,0,0s0,0,0,0,0,0,0,0h0l0,0H8.28v0h0s0,0,0,0h.06v0h0l0,0h0l.06,0,0,0h0s0,0,0,0h0L8.52,8h0l0,0H8.4l0,0V8h0v0h0l0,0h0v0h.05s0,0,0,0h0l0,0v0s0,0,0,0v0s0,0,.05,0h0l0,0h0v0h0l0,0s0,0,0,0h0v0l0,0h0a.17.17,0,0,0,0,0,.2.2,0,0,0,.06.07l.12.06h0l-.07,0H8.75s-.05,0-.05.05h0v.07a0,0,0,0,1,0,0h0a.1.1,0,0,1,0,0v0h0v0h0l0,0h0v0h0v0s0,0,0,0a.08.08,0,0,1-.07,0,0,0,0,0,1,0,0h0s0,0,0,0h0v0a0,0,0,0,0,0,0h0a0,0,0,0,1,0,0h0v0h.05l0,0h.14l0,0a.43.43,0,0,1,0-.05v0c0-.05,0-.08,0-.1h.11a.1.1,0,0,0,0,0s0,0,0,0a.2.2,0,0,0,0,0s0,0,0,0H9v0H9l0,0H9s0,0,0,0h0v0h0s0,0,0,0a0,0,0,0,1,0,0s0,0,0,0H9v0h.05a0,0,0,0,1,0,0l0,0h0v0h0S9.08,8.72,9.09,8.72Z"/></g><g ><path d="M8.74,7.56v0h0s0,0,0,0h0"/></g><g ><path d="M8.74,7.57h0v0h0Zm0,0h0Z"/></g><g ><path d="M8.87,7.51h0a.07.07,0,0,1,0,0H8.87"/></g><g ><path d="M8.93,7.55H8.86v0h0a.07.07,0,0,1,0,0Zm0,0h0a.07.07,0,0,0,0,0h0Z"/></g><g ><path d="M9,7.71l0,0v0H9v0l0,0Z"/></g><g ><path d="M8.38,7.55l0,0h0s0,0,0,0a.07.07,0,0,0,0,0s0,0,0,0l0,0" style="fill:#db4446"/></g><g ><path d="M8.43,7.57h0l0,0v0h0a.05.05,0,0,1,0,0v0h0Zm0,0h0v0a.05.05,0,0,0,0,0v0Z"/></g><g ><path d="M8.31,7.59a0,0,0,0,0-.05,0l0,0h0s0,0,0,0h0l0,0" style="fill:#db4446"/></g><g ><path d="M8.27,7.63h0l0,0h0a.07.07,0,0,1,0,0s.05,0,.05,0h0v0l0,0Zm0,0h0s0,0,0,0h0l0,0Z"/></g><g ><path d="M8.27,7.69l0,0s0,0,0,0l0,0h0v0" style="fill:#db4446"/></g><g ><path d="M8.22,7.77v0a.05.05,0,0,1,0,0l0,0h0s0,0,0,0a0,0,0,0,0,0,0H8.25l0,0Zm0-.07h0a0,0,0,0,0,0,0h0v0Z"/></g><g ><path d="M8.74,7.68h0"/></g><g ><path d="M8.73,7.69l0,0,0,0Zm0,0Z"/></g><g ><path d="M8.76,7.68h0"/></g><g ><path d="M8.76,7.69l0,0,0,0Zm0,0h0Z"/></g><g ><path d="M8.75,7.58h0v0"/></g><g ><path d="M8.75,7.61v0l0,0Zm0,0Z"/></g><g ><path d="M8.78,7.59h0l0,0v0"/></g><g ><path d="M8.79,7.61v0h0Zm0,0h0Z"/></g><g ><path d="M8.71,8.06h0l.05,0,0,0s0,0,0,0v0h0s0,0-.06,0h0a.07.07,0,0,0,0,0v0H8.61l0,0h0l0,0h0l0,0h0a.06.06,0,0,1,0,0H8.61s0,0,0,0h0v0a0,0,0,0,1,0,0,.05.05,0,0,1,0,0v0h0v0h.15l0,0s0,0,0,0v0s0,0,0,0l0,0h0s0,0,.06,0l0,0h0v0a.06.06,0,0,1,0,0h0l0,0a0,0,0,0,1,0,0h0s0,0,0,0,0,0,0,0,0,0,0,0,0,0,0,0v0h0v0h0l0,0,0,0V8a.11.11,0,0,0,0,0V8h0l0,0h0l0,0h0l0,0Z"/></g><g ><path d="M8.35,8h0a.07.07,0,0,0,0,0h.06V8" style="fill:#db4446"/></g><g ><path d="M8.33,8.05h0a0,0,0,0,0,0,0h0a.11.11,0,0,1,.05,0l0,0h0l0,0Zm0,0h0l0,0h0V8h0Z"/></g><g ><path d="M8.33,8.11a0,0,0,0,0,0,0s0,0,0,0,0,0,0,0h0v0a0,0,0,0,0,0,0" style="fill:#db4446"/></g><g ><path d="M8.27,8.17h0a.08.08,0,0,1,0-.05h0a.1.1,0,0,1,0,0v0H8.27Zm0,0h0v0h0a0,0,0,0,1,0,0Z"/></g><g ><path d="M8.37,8.19a.13.13,0,0,0,0,.05h0V8.2H8.37" style="fill:#db4446"/></g><g ><path d="M8.43,8.26h0s0,0,0,0a.05.05,0,0,1,0-.05h.06s0,0,0,0,0,0,0,0Zm0-.06a0,0,0,0,0,0,0l0,0v0s0,0,0,0h0Z"/></g><g ><path d="M8.94,8.39h0a.15.15,0,0,0,0-.07s0-.06-.06-.07h0s.07,0,.07.08A.27.27,0,0,1,8.94,8.39Z"/></g><g ><path d="M8.61,8.42l0,0-.05,0h0v0h0l0,0" style="fill:#db4446"/></g><g ><path d="M8.57,8.46h0l0,0h0l.05,0h0s0,0,0,0h0v0s0,0,0,0Zm0,0h.05v0H8.54Z"/></g><g ><path d="M8.54,8.51h0a.1.1,0,0,0,0,0s0,0,0,0h0V8.51" style="fill:#db4446"/></g><g ><path d="M8.48,8.58v0s0,0,0,0a.08.08,0,0,1,0,0h0v.05H8.51l0,0Zm0-.06h0s0,0,0,0h0v0Z"/></g><g ><path d="M8.6,8.6a0,0,0,0,0,0,0l0,0s0,0,0,0l0,0H8.6" style="fill:#db4446"/></g><g ><path d="M8.65,8.68h0l0,0s0,0,0,0h.05s0,0,0,0v0Zm0-.07a0,0,0,0,0,0,0h0l0,0Z"/></g><g ><path d="M9,8.64H9s0,0,0,0l0,0H9v0" style="fill:#db4446"/></g><g ><path d="M8.92,8.71v0s0,0,0,0H9v0H8.94ZM9,8.65H9v0H9Z"/></g><g ><path d="M9,8.74s0,0,0,0l0,0a0,0,0,0,1,0,0h0l0,0H9" style="fill:#db4446"/></g><g ><path d="M9,8.83H9l0,0s0,0,0,0H9l0,0H9s0,0,0,0Zm0-.08s0,0,0,0v0s0,0,0,0H9Z"/></g><g ><path d="M9.11,8.77a0,0,0,0,0,0,0l0,0s0,0,0,0v0H9.11" style="fill:#db4446"/></g><g ><path d="M9.17,8.84h0l0,0s0,0,0,0h.06l0,0a.1.1,0,0,0,0,0Zm-.05-.07a0,0,0,0,0,0,0h0a0,0,0,0,1,0,0v0h0Z"/></g><g ><path d="M8.09,10.55a.12.12,0,0,1,.1.12.15.15,0,0,1-.17.14.16.16,0,0,1-.17-.14.11.11,0,0,1,.1-.12v0l0,0H8l0,0a0,0,0,0,1,0,0H8l0,0v0l0,0h0v.05" style="fill:#ffd691"/><path d="M8,10.82a.17.17,0,0,1-.18-.15.12.12,0,0,1,.1-.13h0l0,0v0H8l0,0H8l0,0h.06v0h0a.14.14,0,0,1,.1.13C8.2,10.76,8.13,10.82,8,10.82Zm-.08-.3H8v0H8a.1.1,0,0,0-.09.11A.15.15,0,0,0,8,10.8c.1,0,.17-.06.17-.13a.14.14,0,0,0-.1-.12h0s0,0,0,0H8v0H8l0,0h0Z"/></g><g ><path d="M8,10.89a.88.88,0,0,0-.18-.1H7.64l.06.05.11.06a.47.47,0,0,0,.2,0" style="fill:#058e6e"/><path d="M7.9,10.91H7.81a.17.17,0,0,1-.11-.06l-.06,0h.19c.06,0,.18.1.19.1H7.9Zm-.23-.11,0,0,.1.06a.52.52,0,0,0,.18,0,.51.51,0,0,0-.16-.09H7.67Z"/></g><g ><path d="M8.05,10.9a.33.33,0,0,1,.16-.1.56.56,0,0,1,.21,0l-.05,0a.23.23,0,0,1-.13.05H8.05" style="fill:#058e6e"/><path d="M8,10.91l0,0a.41.41,0,0,1,.17-.1.5.5,0,0,1,.2,0h0l-.05,0h0a.2.2,0,0,1-.13.05H8Zm.06,0h.16a.24.24,0,0,0,.12,0h0l0,0a.52.52,0,0,0-.19,0,.32.32,0,0,0-.14.08h0Z"/></g><g ><path d="M8,10.79a.17.17,0,0,1,0-.12.21.21,0,0,1,0-.12.18.18,0,0,1,.05.12.17.17,0,0,1-.05.12" style="fill:#ad1519"/><path d="M8,10.8H8A.16.16,0,0,1,8,10.67.16.16,0,0,1,8,10.55H8a.18.18,0,0,1,.05.12A.19.19,0,0,1,8,10.8Zm0-.23a.13.13,0,0,0,0,.1.14.14,0,0,0,0,.11.16.16,0,0,0,.05-.11A.14.14,0,0,0,8,10.57Z"/></g><g ><path d="M8,11a.3.3,0,0,0,0-.09v-.07H8a.24.24,0,0,1,0,.07V11H8" style="fill:#058e6e"/><path d="M8,11v0a.3.3,0,0,0,0-.09.11.11,0,0,0,0-.06H8a.35.35,0,0,1,0,.07V11H8Zm0-.17v.07A.19.19,0,0,1,8,11H8s0,0,0-.07a.35.35,0,0,0,0-.06H8Z"/></g><g ><path d="M9.6,6.36a0,0,0,0,1,0,0s0,0,0,0a0,0,0,0,1,0,0s0,0,0,0" style="fill:#fff"/></g><g ><path d="M9.64,6.4a0,0,0,1,1,0-.08,0,0,0,1,1,0,.08Zm0-.07a0,0,0,0,0,0,0s0,0,0,0l0,0S9.65,6.33,9.64,6.33Z"/></g><g ><path d="M9.65,6.27a0,0,0,0,1,0,0s0,0,0,0a0,0,0,0,1,0,0s0,0,0,0" style="fill:#fff"/></g><g ><path d="M9.68,6.31a0,0,0,0,1,0-.08,0,0,0,0,1,0,.08Zm0-.06,0,0a0,0,0,0,0,0,0,0,0,0,0,0,0,0S9.7,6.25,9.68,6.25Z"/></g><g ><path d="M9.68,6.17a0,0,0,0,1,0,0l0,0a0,0,0,0,1,0,0,0,0,0,0,1,0,0" style="fill:#fff"/></g><g ><path d="M9.72,6.21s-.05,0-.05,0,0,0,.05,0,0,0,0,0A0,0,0,0,1,9.72,6.21Zm0-.06s0,0,0,0a0,0,0,0,0,0,0s0,0,0,0Z"/></g><g ><path d="M9.68,6.07a0,0,0,0,1,0,0s0,0,0,0a0,0,0,0,1,0,0s0,0,0,0" style="fill:#fff"/></g><g ><path d="M9.72,6.11a0,0,0,1,1,0-.08,0,0,0,0,1,0,.08A0,0,0,0,1,9.72,6.11Zm0-.07a0,0,0,0,0,0,0,0,0,0,0,0,0,0l0,0A0,0,0,0,0,9.72,6Z"/></g><g ><path d="M9.66,6s0,0,0,0a0,0,0,0,1,0,0,0,0,0,0,1,0,0,0,0,0,0,1,0,0" style="fill:#fff"/></g><g ><path d="M9.69,6a0,0,0,0,1,0,0,0,0,0,0,1,0,0,0,0,0,0,1,0,0S9.72,6,9.69,6Zm0-.06a0,0,0,0,0,0,0s0,0,0,0,0,0,0,0A0,0,0,0,0,9.69,5.94Z"/></g><g ><path d="M9.6,5.87s0,0,0,0a0,0,0,1,1,0,.06s0,0,0,0" style="fill:#fff"/></g><g ><path d="M9.64,5.91a0,0,0,0,1,0-.08,0,0,0,0,1,0,.08A0,0,0,0,1,9.64,5.91Zm0-.07a0,0,0,1,0,0,.06l0,0Z"/></g><g ><path d="M9.53,5.79a0,0,0,0,1,0,0,0,0,0,0,1,0,0s0,0,0,0a0,0,0,0,1,0,0" style="fill:#fff"/></g><g ><path d="M9.57,5.83a0,0,0,0,1,0-.08,0,0,0,0,1,0,.08Zm0-.06s0,0,0,0a0,0,0,0,0,0,0,0,0,0,0,0,0,0Z"/></g><g ><path d="M9.45,5.73a0,0,0,0,1,0,0s0,0,0,0,0,0,0,0a0,0,0,0,1,0,0" style="fill:#fff"/></g><g ><path d="M9.48,5.77a0,0,0,0,1,0-.08,0,0,0,0,1,0,0S9.51,5.77,9.48,5.77Zm0-.07a0,0,0,0,0,0,0l0,0a0,0,0,0,0,0,0A0,0,0,0,0,9.48,5.7Z"/></g><g ><path d="M9.35,5.68s0,0,0,0a0,0,0,0,1,0,0s0,0,0,0a0,0,0,0,1,0,0" style="fill:#fff"/></g><g ><path d="M9.38,5.72a0,0,0,0,1,0,0,0,0,0,0,1,0,0s0,0,0,0A0,0,0,0,1,9.38,5.72Zm0-.07a0,0,0,0,0,0,0s0,0,0,0,0,0,0,0A0,0,0,0,0,9.38,5.65Z"/></g><g ><path d="M9.24,5.64s0,0,0,0a0,0,0,1,1,0,.06s0,0,0,0" style="fill:#fff"/></g><g ><path d="M9.28,5.68a0,0,0,0,1,0-.08,0,0,0,0,1,0,.08A0,0,0,0,1,9.28,5.68Zm0-.07a0,0,0,0,0,0,0s0,0,0,0,0,0,0,0A0,0,0,0,0,9.28,5.61Z"/></g><g ><path d="M9.13,5.62s0,0,0,0a0,0,0,0,1,0,0s0,0,0,0a0,0,0,0,1,0,0" style="fill:#fff"/></g><g ><path d="M9.16,5.66a0,0,0,0,1,0-.08,0,0,0,0,1,0,.08Zm0-.07a0,0,0,0,0,0,0l0,0s0,0,0,0A0,0,0,0,0,9.16,5.59Z"/></g><g ><path d="M9,5.61a0,0,0,0,1,0,0s0,0,0,0,0,0,0,0a0,0,0,0,1,0,0" style="fill:#fff"/></g><g ><path d="M9.05,5.65a0,0,0,0,1,0-.08,0,0,0,1,1,0,.08Zm0-.06s0,0,0,0a0,0,0,0,0,0,0,0,0,0,0,0,0,0S9.07,5.59,9.05,5.59Z"/></g><g ><path d="M8.91,5.61a0,0,0,0,1,0,0,0,0,0,0,1,0,0s0,0,0,0a0,0,0,0,1,0,0" style="fill:#fff"/></g><g ><path d="M9,5.66a0,0,0,0,1,0,0s0,0,0,0a0,0,0,0,1,0,0A0,0,0,0,1,9,5.66Zm0-.07s0,0,0,0a0,0,0,0,0,0,0,0,0,0,0,0,0,0S9,5.59,9,5.59Z"/></g><g ><path d="M8.8,5.61a0,0,0,0,1,0,0,0,0,0,0,1,0,0s0,0,0,0a0,0,0,0,1,0,0" style="fill:#fff"/></g><g ><path d="M8.84,5.66a0,0,0,0,1,0,0s0,0,0,0a0,0,0,0,1,0,0A0,0,0,0,1,8.84,5.66Zm0-.07s0,0,0,0a0,0,0,0,0,0,0,0,0,0,0,0,0,0S8.85,5.59,8.84,5.59Z"/></g><g ><path d="M8.86,5.71a0,0,0,0,1,0,0s0,0,0,0,0,0,0,0a0,0,0,0,1,0,0" style="fill:#fff"/><path d="M8.89,5.75a0,0,0,1,1,0-.08,0,0,0,0,1,0,.08A0,0,0,0,1,8.89,5.75Zm0-.07a0,0,0,0,0,0,0l0,0a0,0,0,0,0,0,0A0,0,0,0,0,8.89,5.68Z"/></g><g ><path d="M8.88,5.81a0,0,0,0,1,0,0s0,0,0,0,0,0,0,0a0,0,0,0,1,0,0" style="fill:#fff"/><path d="M8.91,5.85a0,0,0,0,1,0-.08,0,0,0,0,1,0,.08Zm0-.07,0,0a0,0,0,0,0,0,0,0,0,0,1,0,0-.06Z"/></g><g ><path d="M8.88,5.91s0,0,0,0a0,0,0,0,1,0,0s0,0,0,0a0,0,0,0,1,0,0" style="fill:#fff"/><path d="M8.92,6a0,0,0,1,1,0-.08,0,0,0,0,1,0,.08A0,0,0,0,1,8.92,6Zm0-.06s0,0,0,0a0,0,0,0,0,0,0,0,0,0,0,0,0,0Z"/></g><g ><path d="M8.85,6a0,0,0,0,1,0,0s0,0,0,0l0,0a0,0,0,0,1,0,0" style="fill:#fff"/><path d="M8.89,6s-.05,0-.05,0a0,0,0,0,1,.05,0,0,0,0,0,1,0,0A0,0,0,0,1,8.89,6Zm0-.06a0,0,0,0,0,0,0s0,0,0,0a0,0,0,0,0,0,0S8.9,6,8.89,6Z"/></g><g ><path d="M8.79,6.09s0,0,0,0a0,0,0,0,1,0,.06s0,0,0,0" style="fill:#fff"/><path d="M8.83,6.13a0,0,0,0,1,0-.08,0,0,0,0,1,0,.08Zm0-.07a0,0,0,0,0,0,0,0,0,0,0,0,0,0,0,0,0,0,0,0,0Z"/></g><g ><path d="M8.72,5.55s0,0,0,0a0,0,0,0,1,0,0,0,0,0,0,1,0,0s0,0,0,0" style="fill:#fff"/></g><g ><path d="M8.76,5.59a0,0,0,1,1,0-.08,0,0,0,0,1,0,.08Zm0-.07a0,0,0,0,0,0,0,0,0,0,0,0,0,0s0,0,0,0S8.77,5.52,8.76,5.52Z"/></g><g ><path d="M8.63,5.5a0,0,0,0,1,0,0s0,0,0,0,0,0,0,0a0,0,0,0,1,0,0" style="fill:#fff"/></g><g ><path d="M8.66,5.54a0,0,0,0,1,0-.08,0,0,0,0,1,0,.08A0,0,0,0,1,8.66,5.54Zm0-.07a0,0,0,0,0,0,0,0,0,0,1,0,.06,0A0,0,0,0,0,8.66,5.47Z"/></g><g ><path d="M8.52,5.47a0,0,0,0,1,0,0s0,0,0,0a0,0,0,0,1-.07,0" style="fill:#fff"/></g><g ><path d="M8.56,5.51a0,0,0,0,1-.05,0s0,0,.05,0a0,0,0,0,1,0,0A0,0,0,0,1,8.56,5.51Zm0-.07a0,0,0,0,0,0,0s0,0,0,0a0,0,0,0,0,0,0S8.57,5.44,8.56,5.44Z"/></g><g ><path d="M8.41,5.45a0,0,0,0,1,0,0,0,0,0,0,1,0,0s0,0,0,0a0,0,0,0,1,0,0" style="fill:#fff"/></g><g ><path d="M8.44,5.49a0,0,0,0,1,0-.08,0,0,0,1,1,0,.08Zm0-.07s0,0,0,0l0,0s0,0,0,0A0,0,0,0,0,8.44,5.42Z"/></g><g ><path d="M8.3,5.45s0,0,0,0a0,0,0,1,1,0,.06s0,0,0,0" style="fill:#fff"/></g><g ><path d="M8.34,5.49a0,0,0,0,1,0-.08,0,0,0,1,1,0,.08Zm0-.07a0,0,0,0,0,0,0,0,0,0,0,0,0,0l0,0A0,0,0,0,0,8.34,5.42Z"/></g><g ><path d="M8.19,5.47a0,0,0,0,1,0,0,0,0,0,0,1,0,0s0,0,0,0a0,0,0,0,1,0,0" style="fill:#fff"/></g><g ><path d="M8.23,5.51a0,0,0,1,1,0-.08,0,0,0,1,1,0,.08Zm0-.07a0,0,0,0,0,0,0s0,0,0,0a0,0,0,0,0,0,0S8.24,5.44,8.23,5.44Z"/></g><g ><path d="M8.09,5.5a0,0,0,0,1,0,0,0,0,0,0,1,0,0,0,0,0,0,1,0,0s0,0,0,0" style="fill:#fff"/></g><g ><path d="M8.12,5.54a0,0,0,0,1,0,0,0,0,0,0,1,.08,0A0,0,0,0,1,8.12,5.54Zm0-.06,0,0a0,0,0,0,0,0,0,0,0,0,0,0,0,0S8.14,5.48,8.12,5.48Z"/></g><g ><path d="M6.33,6.36a0,0,0,0,1,0,0,0,0,0,0,1,0,0,0,0,0,0,1,0,0s0,0,0,0" style="fill:#fff"/></g><g ><path d="M6.37,6.4a0,0,0,0,1,0-.08,0,0,0,0,1,0,.08Zm0-.07a0,0,0,0,0,0,0s0,0,0,0l0,0S6.38,6.33,6.37,6.33Z"/></g><g ><path d="M6.28,6.27s0,0,0,0a0,0,0,0,1,0,0s0,0,0,0a0,0,0,0,1,0,0" style="fill:#fff"/></g><g ><path d="M6.32,6.31a0,0,0,0,1,0-.08,0,0,0,0,1,0,.08A0,0,0,0,1,6.32,6.31Zm0-.06s0,0,0,0a0,0,0,0,0,0,0,0,0,0,0,0,0,0Z"/></g><g ><path d="M6.25,6.17a0,0,0,0,1,0,0l0,0a0,0,0,0,1,0,0,0,0,0,0,1,0,0" style="fill:#fff"/></g><g ><path d="M6.29,6.21s0,0,0,0,0,0,0,0,0,0,0,0A0,0,0,0,1,6.29,6.21Zm0-.06s0,0,0,0a0,0,0,0,0,0,0s0,0,0,0S6.3,6.15,6.29,6.15Z"/></g><g ><path d="M6.25,6.07s0,0,0,0a0,0,0,0,1,0,0s0,0,0,0a0,0,0,0,1,0,0" style="fill:#fff"/></g><g ><path d="M6.28,6.11a0,0,0,1,1,0-.08,0,0,0,0,1,0,.08A0,0,0,0,1,6.28,6.11Zm0-.07a0,0,0,0,0,0,0,0,0,0,0,0,0,0,0,0,0,0,0,0,0A0,0,0,0,0,6.28,6Z"/></g><g ><path d="M6.27,6a0,0,0,0,1,0,0s0,0,0,0a0,0,0,0,1,0,0,0,0,0,0,1,0,0" style="fill:#fff"/></g><g ><path d="M6.31,6a0,0,0,0,1,0,0,0,0,0,0,1,.08,0A0,0,0,0,1,6.31,6Zm0-.06a0,0,0,0,0,0,0s0,0,0,0,0,0,0,0A0,0,0,0,0,6.31,5.94Z"/></g><g ><path d="M6.33,5.87a0,0,0,0,1,0,0s0,0,0,0,0,0,0,0a0,0,0,0,1,0,0" style="fill:#fff"/></g><g ><path d="M6.36,5.91a0,0,0,0,1,0-.08,0,0,0,0,1,0,.08A0,0,0,0,1,6.36,5.91Zm0-.07a0,0,0,0,0,0,.06,0,0,0,1,0,0-.06Z"/></g><g ><path d="M6.4,5.79a0,0,0,0,1,0,0,0,0,0,0,1,0,0,0,0,0,0,1,0,0s0,0,0,0" style="fill:#fff"/></g><g ><path d="M6.43,5.83a0,0,0,0,1,0-.08,0,0,0,0,1,0,.08Zm0-.06,0,0s0,0,0,0a0,0,0,0,0,0,0S6.45,5.77,6.43,5.77Z"/></g><g ><path d="M6.48,5.73s0,0,0,0a0,0,0,1,1,0,.06s0,0,0,0" style="fill:#fff"/></g><g ><path d="M6.52,5.77a0,0,0,0,1,0-.08,0,0,0,0,1,0,.08A0,0,0,0,1,6.52,5.77Zm0-.07a0,0,0,0,0,0,0,0,0,0,0,0,0,0,0,0,0,0,0,0,0A0,0,0,0,0,6.52,5.7Z"/></g><g ><path d="M6.58,5.68a0,0,0,0,1,0,0s0,0,0,0a0,0,0,0,1,0,0,0,0,0,0,1,0,0" style="fill:#fff"/></g><g ><path d="M6.62,5.72a0,0,0,0,1,0,0,0,0,0,0,1,.08,0A0,0,0,0,1,6.62,5.72Zm0-.07a0,0,0,0,0,0,0s0,0,0,0,0,0,0,0A0,0,0,0,0,6.62,5.65Z"/></g><g ><path d="M6.69,5.64a0,0,0,0,1,0,0s0,0,0,0,0,0,0,0a0,0,0,0,1,0,0" style="fill:#fff"/></g><g ><path d="M6.72,5.68a0,0,0,0,1,0-.08,0,0,0,0,1,0,.08A0,0,0,0,1,6.72,5.68Zm0-.07a0,0,0,0,0,0,0s0,0,0,0,0,0,0,0A0,0,0,0,0,6.72,5.61Z"/></g><g ><path d="M6.8,5.62a0,0,0,0,1,0,0s0,0,0,0a0,0,0,0,1,0,0s0,0,0,0" style="fill:#fff"/></g><g ><path d="M6.84,5.66a0,0,0,0,1,0-.08,0,0,0,0,1,0,.08Zm0-.07a0,0,0,0,0,0,0s0,0,0,0l0,0A0,0,0,0,0,6.84,5.59Z"/></g><g ><path d="M6.91,5.61s0,0,0,0a0,0,0,1,1,0,.06s0,0,0,0" style="fill:#fff"/></g><g ><path d="M7,5.65a0,0,0,0,1,0,0,0,0,0,0,1,.08,0A0,0,0,0,1,6.91,5.61Zm0-.06s0,0,0,0a0,0,0,0,0,0,0,0,0,0,0,0,0,0S7,5.59,7,5.59Z"/></g><g ><path d="M7,5.61a0,0,0,0,1,.07,0,0,0,0,0,1,0,0,0,0,0,0,1,0,0" style="fill:#fff"/></g><g ><path d="M7.05,5.66a0,0,0,0,1,0,0,0,0,0,0,1,0,0s0,0,0,0A0,0,0,0,1,7.05,5.66Zm0-.07a0,0,0,0,0,0,0s0,0,0,0a0,0,0,0,0,0,0S7.07,5.59,7.05,5.59Z"/></g><g ><path d="M7.13,5.61a0,0,0,0,1,0,0,0,0,0,0,1,0,0,0,0,0,0,1,0,0s0,0,0,0" style="fill:#fff"/></g><g ><path d="M7.16,5.66a0,0,0,0,1,0,0,0,0,0,0,1,0,0s0,0,0,0A0,0,0,0,1,7.16,5.66Zm0-.07s0,0,0,0a0,0,0,0,0,0,0,0,0,0,0,0,0,0S7.18,5.59,7.16,5.59Z"/></g><g ><path d="M7.07,5.71s0,0,0,0a0,0,0,1,1,0,.06s0,0,0,0" style="fill:#fff"/><path d="M7.11,5.75a0,0,0,0,1,0-.08,0,0,0,0,1,0,.08A0,0,0,0,1,7.11,5.75Zm0-.07a0,0,0,0,0,0,0,0,0,0,0,0,0,0l0,0A0,0,0,0,0,7.11,5.68Z"/></g><g ><path d="M7.05,5.81s0,0,0,0a0,0,0,0,1,0,.06s0,0,0,0" style="fill:#fff"/><path d="M7.09,5.85a0,0,0,0,1,0-.08,0,0,0,0,1,0,.08Zm0-.07a0,0,0,1,0,0,.06,0,0,0,0,0,0,0Z"/></g><g ><path d="M7.05,5.91a0,0,0,0,1,0,0s0,0,0,0a0,0,0,0,1,0,0s0,0,0,0" style="fill:#fff"/><path d="M7.08,6a0,0,0,0,1,0-.08,0,0,0,0,1,0,.08Zm0-.06,0,0a0,0,0,0,0,0,0,0,0,0,0,0,0,0S7.1,5.89,7.08,5.89Z"/></g><g ><path d="M7.08,6a0,0,0,0,1,0,0,0,0,0,0,1,0,0,0,0,0,0,1-.07,0" style="fill:#fff"/><path d="M7.11,6a0,0,0,0,1,0,0,0,0,0,0,1,0,0,0,0,0,0,1,0,0S7.14,6,7.11,6Zm0-.06s0,0,0,0a0,0,0,0,0,0,0s0,0,0,0A0,0,0,0,0,7.11,6Z"/></g><g ><path d="M7.14,6.09a0,0,0,0,1,0,0s0,0,0,0,0,0,0,0a0,0,0,0,1,0,0" style="fill:#fff"/><path d="M7.18,6.13a0,0,0,1,1,0-.08,0,0,0,0,1,0,.08Zm0-.07a0,0,0,0,0,0,0,0,0,0,0,0,0,0s0,0,0,0S7.19,6.06,7.18,6.06Z"/></g><g ><path d="M7.21,5.55a0,0,0,0,1,0,0s0,0,0,0,0,0,0,0a0,0,0,0,1,0,0" style="fill:#fff"/></g><g ><path d="M7.24,5.59a0,0,0,0,1,0-.08,0,0,0,1,1,0,.08Zm0-.07s0,0,0,0,0,0,0,0a0,0,0,0,0,0,0A0,0,0,0,0,7.24,5.52Z"/></g><g ><path d="M7.31,5.5a0,0,0,0,1,0,0s0,0,0,0,0,0,0,0a0,0,0,0,1,0,0" style="fill:#fff"/></g><g ><path d="M7.34,5.54a0,0,0,0,1,0-.08,0,0,0,0,1,0,.08A0,0,0,0,1,7.34,5.54Zm0-.07a0,0,0,0,0,0,0,0,0,0,0,0,.06,0A0,0,0,0,0,7.34,5.47Z"/></g><g ><path d="M7.41,5.47a0,0,0,0,1,0,0,0,0,0,0,1,0,.07,0,0,0,0,1,0-.07" style="fill:#fff"/></g><g ><path d="M7.45,5.51a0,0,0,0,1,0,0s0,0,0,0a0,0,0,0,1,0,0A0,0,0,0,1,7.45,5.51Zm0-.07a0,0,0,0,0,0,0s0,0,0,0a0,0,0,0,0,0,0S7.46,5.44,7.45,5.44Z"/></g><g ><path d="M7.52,5.45a0,0,0,0,1,0,0s0,0,0,0a0,0,0,0,1,0,0s0,0,0,0" style="fill:#fff"/></g><g ><path d="M7.56,5.49a0,0,0,0,1,0-.08,0,0,0,0,1,0,.08Zm0-.07a0,0,0,0,0,0,0s0,0,0,0l0,0A0,0,0,0,0,7.56,5.42Z"/></g><g ><path d="M7.63,5.45a0,0,0,0,1,0,0s0,0,0,0,0,0,0,0a0,0,0,0,1,0,0" style="fill:#fff"/></g><g ><path d="M7.66,5.49a0,0,0,0,1,0-.08,0,0,0,0,1,0,.08Zm0-.07s0,0,0,0,0,0,0,0a0,0,0,0,0,0,0A0,0,0,0,0,7.66,5.42Z"/></g><g ><path d="M7.74,5.47a0,0,0,0,1,0,0s0,0,0,0a0,0,0,0,1,0,0s0,0,0,0" style="fill:#fff"/></g><g ><path d="M7.78,5.51a0,0,0,0,1,0-.08,0,0,0,0,1,0,.08Zm0-.07a0,0,0,0,0,0,0s0,0,0,0a0,0,0,0,0,0,0S7.79,5.44,7.78,5.44Z"/></g><g ><path d="M7.84,5.5a0,0,0,0,1,0,0,0,0,0,0,1,0,0s0,0,0,0a0,0,0,0,1,0,0" style="fill:#fff"/></g><g ><path d="M7.88,5.54a0,0,0,0,1,0,0,0,0,0,0,1,.08,0A0,0,0,0,1,7.88,5.54Zm0-.06s0,0,0,0a0,0,0,0,0,0,0,0,0,0,0,0,0,0Z"/></g><g ><path d="M7,7.63h0v0H6.87v.12h.06V7.8H6.81V8h.06v.47H6.76v.24h.9V8.51H7.55V8h.06V7.8H7.49V7.72h.06V7.6H7.49v0h0v0h0v0h0v0H7.32v.12h.06V7.8H7.27V7.54h.05V7.42H7.27v0h0v0H7.18v0h0v0H7.09v.12h.06V7.8H7V7.72H7.1V7.6H7v0H7v0H7v0ZM6.76,8.75h.9m-.9-.06h.9m-.9,0h.9m-.9-.06h.9m-.9-.07h.9m-.79,0h.68M6.87,8.4h.68m-.68-.07h.68m-.68-.06h.68m-.68-.06h.68m-.68-.06h.68M6.87,8.1h.68M6.81,8h.8M6.81,8h.8m-.8-.06h.8m-.8-.06h.8M6.93,7.8h.56m-.33-.06h.11m-.11-.06h.11m-.11-.06h.11m-.11-.06h.11m-.18-.07h.23m-.39.25H7m-.17-.07H7.1M6.87,8.75V8.69m0,0V8.58m-.06.06v0m.12,0v0M7,8.75V8.69m0,0V8.58m0-.07v0M7,8.4V8.33m-.05.25V8.51m-.12.07V8.51m.23,0v.07m0-.07v0M6.93,8.4v.06M7,8.4v.06m.12-.06v.06M7.09,8.4V8.33m.07-.06v.06m0-.18v.06M7.09,8.1v.05M7.16,8V8.1M7,8V8.1M6.93,8V8.1M6.87,8V8M7,8V8M7.09,8V8m.07-.12V8M7,7.92V8m-.11-.06V8m-.06-.12v.06m.22-.06v.06M7,7.74V7.8m.51-.06H7.38m.17-.07H7.32m.23,1.08V8.69m0,0V8.58m.06.06v0m-.12,0v0m0,.11V8.69m0,0V8.58m0-.07v0m0-.06V8.33m0,.25V8.51m.12.07V8.51m-.23,0v.07m-.06-.07v0m.17-.06v.06M7.38,8.4v.06M7.27,8.4v.06m.05-.06V8.33m-.05-.06v.06m0-.18v.06m.05-.11v.05M7.27,8V8.1M7.38,8V8.1M7.49,8V8.1M7.55,8V8M7.44,8V8M7.32,8V8m-.05-.12V8m.11-.06V8m.11-.06V8m.06-.12v.06m-.23-.06v.06m.12-.18V7.8m-.23.6V8.33m0-.18V8.1m0,.17V8.21m0-.17V8m0-.06V7.86m0-.12V7.68m0-.06V7.56m-.28.16H7m.12-.18h.11m.11.18h.11" style="fill:#c8b100"/><path d="M7.67,8.76H6.75V8.5h.12V8H6.81V7.79h.11V7.72h0V7.59h.06v0H7v0H7v0H7v0H7.1v.13h0v.07h.1V7.55H7.09V7.41h.07v0h0v0h.06v0h0v0h.07v.14H7.27v.24h.1V7.72h0V7.59h.06v0h0v0h.06v0h0v0h.06v.13h0v.07h.11V8H7.55V8.5h.12Zm-.12,0h.11V8.7H7.55Zm-.11,0h.1V8.7h-.1ZM7,8.75h.44V8.7H7Zm-.11,0H7V8.7h-.1Zm-.12,0h.11V8.7H6.76Zm.85-.06h0v0h0Zm-.11,0h.1v0H7.5Zm-.57,0h.56v0H6.93Zm-.11,0h.1v0h-.1Zm-.06,0h0v0h0Zm.79-.06h.11V8.58H7.55Zm-.11,0h.1V8.58h-.1ZM7,8.63h.44V8.58H7Zm-.11,0H7V8.58h-.1Zm-.12,0h.11V8.58H6.76Zm.85-.06h0V8.52h0Zm-.11,0h.1V8.52H7.5Zm-.12,0h.11V8.52H7.38Zm-.33,0h.32V8.52H7.05Zm-.12,0H7V8.52H6.93Zm-.11,0h.1V8.52h-.1Zm-.06,0h0V8.52h0Zm.68-.07h.1v0h-.1Zm-.11,0h.1v0h-.1Zm-.23,0h.22v0H7.1ZM7,8.5h.1v0H7Zm-.11,0H7v0h-.1Zm.62-.05h0v0h0Zm-.12,0h.11v0H7.38Zm-.11,0h.1v0h-.1Zm-.11,0h.1v0h-.1Zm-.11,0h.1v0h-.1Zm-.12,0H7v0H6.93Zm0,0h0v0h0Zm.56-.06h.1V8.34h-.1Zm-.11,0h.1V8.34h-.1Zm-.12,0h.11V8.34H7.21Zm-.11,0h.1V8.34H7.1ZM7,8.39h.1V8.34H7Zm-.11,0H7V8.34h-.1Zm.39-.07h.27v0H7.27Zm-.11,0h.1v0h-.1Zm-.28,0h.27v0H6.88Zm.33-.05h.33v0H7.21Zm-.33,0H7.2v0H6.88Zm.39-.06h.27V8.16H7.27Zm-.11,0h.1V8.16h-.1Zm-.28,0h.27V8.16H6.88Zm.45-.06h.21V8.1H7.33Zm-.12,0h.11V8.1H7.21Zm-.11,0h.1V8.1H7.1Zm-.22,0h.21V8.1H6.88Zm.62-.06h0V8h0Zm-.12,0h.11V8H7.38Zm-.11,0h.1V8h-.1Zm-.11,0h.1V8h-.1Zm-.11,0h.1V8h-.1Zm-.12,0H7V8H6.93Zm0,0h0V8h0ZM7.55,8h0V8h0ZM7.44,8h.1V8h-.1ZM7.33,8h.1V8h-.1ZM7.21,8h.11V8H7.21ZM7.1,8h.1V8H7.1ZM7,8h.1V8H7ZM6.88,8H7V8h-.1ZM6.82,8h0V8h0ZM7.5,8h.1v0H7.5ZM7.38,8h.11v0H7.38ZM7.27,8h.1v0h-.1ZM7.16,8h.1v0h-.1ZM7.05,8h.1v0h-.1ZM6.93,8H7v0H6.93ZM6.82,8h.1v0h-.1Zm.73-.06h0v0h0Zm-.22,0h.21v0H7.33Zm-.12,0h.11v0H7.21Zm-.11,0h.1v0H7.1Zm-.22,0h.21v0H6.88Zm-.06,0h0v0h0Zm0-.06H7.6v0H6.82Zm.62-.06h0v0h0Zm-.06,0h0v0h0Zm-.22,0h.1v0h-.1ZM7,7.79H7v0H7Zm-.06,0H7v0H6.93Zm.45-.06h0Zm-.17,0h0v0h0Zm0,0h0v0h0Zm-.23,0h0Zm.56,0h0v0H7.33v0ZM7,7.71h0v0H6.88v0Zm.12,0h.1v0h-.1Zm.17,0h.21v0h0v0h0v0h0v0h0v0h0Zm-.45,0h.21v0h0v0H7v0H7v0h0v0h0Zm.33,0h0v0h0Zm0,0h0v0h0Zm0-.06h0Zm.11,0h.05v0H7.1v0Zm-.17,0h.22V7.43H7.27v0h0v0h0v0h0v0H7.1Z"/></g><g ><path d="M7.36,8.75V8.6s0-.12-.15-.12-.15.09-.15.12v.15Z" style="fill:#c8b100"/><path d="M7.37,8.76H7.05V8.6s0-.13.16-.13.16.11.16.13Zm-.3,0h.28V8.6s0-.11-.14-.11-.14.09-.14.11v.15Z"/></g><g ><path d="M7.11,8.6H7s0-.08,0-.09l.06.05Z" style="fill:#c8b100"/><path d="M7.12,8.61H7a.15.15,0,0,1,0-.1h0l.07.06h0s0,0,0,0ZM7,8.59H7.1l0,0,0,0S7.05,8.56,7,8.59Z"/></g><g ><path d="M7.31,8.6h.07s0-.08,0-.09l-.07.05Z" style="fill:#c8b100"/><path d="M7.3,8.61h0s0,0,0,0h0l.07-.06h0a.15.15,0,0,1,0,.1H7.3Zm0,0a.08.08,0,0,0,0,0h.06a.08.08,0,0,0,0-.07Z"/></g><g ><path d="M7.24,8.53l0-.07H7.21l-.06,0,0,.06Z" style="fill:#c8b100"/><path d="M7.24,8.54H7.18l0-.08h0l.07,0,.07,0h0Zm0,0h0l0,0h-.1Z"/></g><g ><path d="M7.09,8.35V8.18A.07.07,0,0,0,7,8.1a.08.08,0,0,0-.08.08v.17Z" style="fill:#c8b100"/><path d="M7.1,8.35H6.93V8.18A.07.07,0,0,1,7,8.1c.06,0,.09,0,.09.08Zm-.16,0h.15V8.18A.07.07,0,0,0,7,8.11a.07.07,0,0,0-.07.07Z"/></g><g ><path d="M7.32,8.35V8.18a.08.08,0,0,1,.09-.08.08.08,0,0,1,.08.08v.17Z" style="fill:#c8b100"/><path d="M7.49,8.35H7.32V8.18s0-.08.09-.08a.08.08,0,0,1,.09.08Zm-.16,0h.15V8.18a.07.07,0,0,0-.07-.07.08.08,0,0,0-.08.07Z"/></g><g ><path d="M7.27,8V7.8H7.14V8Z" style="fill:#c8b100"/><path d="M7.27,8H7.14V7.79h.16Zm-.12,0h.11V7.81H7.15Z"/></g><g ><path d="M7.38,8l0-.15h.15l0,.15Z" style="fill:#c8b100"/><path d="M7.5,8H7.37l0-.16h.17Zm-.12,0h.11V7.81H7.37Z"/></g><g ><path d="M7,8V7.8H6.91V8Z" style="fill:#c8b100"/><path d="M7.05,8H6.92l0-.16h.16Zm-.12,0H7V7.81H6.92Z"/></g><g ><path d="M7.31,8.75V8.62a.09.09,0,0,0-.1-.09.1.1,0,0,0-.1.09v.13Z" style="fill:#0039f0"/></g><g ><path d="M7.08,8.33V8.19A.06.06,0,0,0,7,8.12S7,8.15,7,8.19v.14Z" style="fill:#0039f0"/></g><g ><path d="M7.34,8.33V8.19a.06.06,0,0,1,.07-.07s.06,0,.06.07v.14Z" style="fill:#0039f0"/></g><g ><path d="M7.49,9A.56.56,0,0,1,8,8.41.55.55,0,0,1,8.53,9a.52.52,0,1,1-1,0" style="fill:#ad1519"/></g><g ><path d="M8,9.59A.57.57,0,0,1,7.48,9,.56.56,0,0,1,8,8.4.56.56,0,0,1,8.54,9,.56.56,0,0,1,8,9.59ZM8,8.42A.54.54,0,0,0,7.5,9,.55.55,0,0,0,8,9.57.58.58,0,0,0,8,8.42Z"/></g><g ><path d="M7.65,9A.37.37,0,1,1,8,9.42.4.4,0,0,1,7.65,9" style="fill:#005bbf"/></g><g ><path d="M8,9.43A.44.44,0,1,1,8.39,9,.41.41,0,0,1,8,9.43Zm0-.86A.42.42,0,1,0,8.37,9,.39.39,0,0,0,8,8.57Z"/></g><g ><path d="M7.84,8.7a.14.14,0,0,0,0,.09.21.21,0,0,0,0,.08.05.05,0,0,0-.05,0,0,0,0,0,0,0,0v0l0,0s0,0,0,0a0,0,0,0,1,0,0h0V9h0l0,.06,0,0,0,0,0,0,0,0,0-.05h0V9h0l0,0,0,0v0a0,0,0,0,0,0,0,0,0,0,0,0,0,0s0,0,0,0a.21.21,0,0,0,0-.08.14.14,0,0,0,0-.09" style="fill:#c8b100"/></g><g ><path d="M7.84,9.07h0l0,0h0L7.8,9h0V9h0l0,0h0v0a0,0,0,0,1,0,0,.05.05,0,0,1,0-.05h0a.43.43,0,0,1,0-.05.17.17,0,0,1,0-.1h0a.19.19,0,0,1,0,.1.07.07,0,0,1,0,.05h0A.06.06,0,0,1,8,8.88v0l0,0h0s0,0,0,0h0V9h0l0,0h0l0,0Zm0,0h0l0,0,0,0h0l0,0h0V9h0s0,0,0,0h0v0a0,0,0,0,0,0,0l0,0h0a.12.12,0,0,0,0-.07.19.19,0,0,0,0-.09.19.19,0,0,0,0,.09.12.12,0,0,0,0,.07h0s0,0,0,0a0,0,0,0,0,0,0v0l0,0h0s0,0,0,0h0V9h0l0,0h0Z"/></g><g ><path d="M7.77,9h.14V9H7.77Z" style="fill:#c8b100"/></g><g ><path d="M7.92,9H7.77V9h.15ZM7.78,9h.13V9H7.78Z"/></g><g ><path d="M8.18,8.7a.14.14,0,0,0,0,.09.21.21,0,0,0,0,.08.05.05,0,0,0-.05,0,0,0,0,0,0,0,0v0l0,0s0,0,0,0a0,0,0,0,1,0,0h0V9h0l0,.06,0,0,0,0,0,0,0,0,0-.05h0V9h0a0,0,0,0,1,0,0l0,0v0a0,0,0,0,0,0,0,0,0,0,0,0-.05,0s0,0,0,0a.21.21,0,0,0,0-.08.14.14,0,0,0-.05-.09" style="fill:#c8b100"/></g><g ><path d="M8.18,9.07h0l0,0h0l0-.05h0V9h0l0,0h0v0a0,0,0,0,1,0,0,.05.05,0,0,1,0-.05h0a.43.43,0,0,1,0-.05.17.17,0,0,1,0-.1h0a.13.13,0,0,1,.05.1.07.07,0,0,1,0,.05h0a.05.05,0,0,1,.05.05v0l0,0h0l0,0h0V9h0l0,0h0l0,0Zm0,0h0l0,0,0,0h0l0,0h0V9h0s0,0,0,0h0v0a0,0,0,0,0-.05,0,0,0,0,0,0,0,0h0a.12.12,0,0,0,0-.07.19.19,0,0,0,0-.09.19.19,0,0,0,0,.09.12.12,0,0,0,0,.07h0s0,0,0,0a0,0,0,0,0,0,0v0l0,0h0s0,0,0,0h0V9h0l0,0Z"/></g><g ><path d="M8.11,9h.14V9H8.11Z" style="fill:#c8b100"/></g><g ><path d="M8.26,9H8.11V9h.15ZM8.12,9h.12V9H8.12Z"/></g><g ><path d="M8,9a.19.19,0,0,0,0,.09.38.38,0,0,0,0,.08s0,0,0,0a0,0,0,0,0-.05,0v.05l0,0s0,0,0,0h0v0H8l0,.05H8l0,0,0,0h0l0-.05h0v0H8a0,0,0,0,1,0,0l0,0V9.18a0,0,0,0,0-.05,0s0,0,0,0a.38.38,0,0,0,0-.08S8,9,8,9" style="fill:#c8b100"/></g><g ><path d="M8,9.36H8l0,0,0,0H8l0-.05h0v0H8a0,0,0,0,0,0,0h0v0s0,0,0,0a.06.06,0,0,1,.05-.06H8a.43.43,0,0,1,0-.05A.13.13,0,0,1,8,9H8s0,.06,0,.1a.07.07,0,0,1,0,.05h0a.06.06,0,0,1,.06.06v0l0,0h0a0,0,0,0,0,0,0h0v0h0l0,.05h0l0,0,0,0Zm0,0H8l0,0,0,0h0l0,0h0v0H8a0,0,0,0,1,0,0h0v0s0,0,0,0a0,0,0,0,0,0,0H8a.12.12,0,0,0,0-.07A.15.15,0,0,0,8,9a.15.15,0,0,0,0,.08.12.12,0,0,0,0,.07H8l0,0a0,0,0,0,0,0,0v0l0,0H8a0,0,0,0,1,0,0H8v0H8l0,0H8Z"/></g><g ><path d="M7.94,9.29h.14v0H7.94Z" style="fill:#c8b100"/></g><g ><path d="M8.09,9.29H7.94v0h.15ZM8,9.28h.12v0H8Z"/></g><g ><path d="M9.05,7.45H9a0,0,0,0,1,0,0h0s0,0,0,0h0v0a.1.1,0,0,1,0,0l.1,0,.07.08,0,0h0v0h0s0,0,0,0h0s0,0,0,0h0" style="fill:#c8b100"/></g><g ><path d="M9.07,7.59h0A.19.19,0,0,0,9,7.52L8.9,7.46h0a.1.1,0,0,1,0,0,.1.1,0,0,0,0,0h0l0,0h0a.06.06,0,0,0,0,0H9v0H9v0h.08v0h0s0,0,0,0h0v0h.1l0,0H9.07Zm-.16-.13a.16.16,0,0,1,.09,0,.23.23,0,0,1,.07.07h0s0,0,0,0h0v0h0v0H9s0,0,0,0H8.93l0,0s0,0,0,0Zm.14,0Z"/></g><g ><path d="M9,7.47H9"/></g><g ><path d="M9,7.48H9Zm0,0Z"/></g><g ><path d="M9,7.49H9"/></g><g ><path d="M9,7.5Zm0,0Z"/></g><g ><path d="M9,7.46H9"/></g><g ><path d="M9,7.46H9Zm0,0H9Z"/></g><g ><path d="M8.92,7.43h0"/></g><g ><path d="M8.93,7.44h0Zm0,0h0Z"/></g><g ><path d="M9,7.52H9"/></g><g ><path d="M9,7.52Zm0,0H9Z"/></g><g ><path d="M9.06,7.54h0"/></g><g ><path d="M9.07,7.55Zm0,0h0Z"/></g><g ><path d="M9.09,7.56h0"/></g><g ><path d="M9.09,7.57Zm0,0Z"/></g><g ><path d="M9,7.37H9v0H9v0" style="fill:#c8b100"/></g><g ><path d="M9,7.41H9v0H9v0l0,0Zm0,0H9Z"/></g><g ><path d="M9,7.39H9l0,0H9" style="fill:#c8b100"/></g><g ><path d="M9,7.41H9v0H9l0,0H9Zm0,0H9v0H9Z"/></g><g ><path d="M9,7.42H9l0,0H9v0" style="fill:#c8b100"/></g><g ><path d="M9,7.43l0,0H9v0Zm0,0v0H9Z"/></g><g ><path d="M9,7.4s0,0,0,0H9s0,0,0,0" style="fill:#c8b100"/></g><g ><path d="M9,7.42H9Zm0,0Z"/></g><g ><path d="M8.91,7.37a0,0,0,0,1,0,0h0s0,0,0,0h0" style="fill:#c8b100"/></g><g ><path d="M8.91,7.38h0v0h0s0,0,0,0Zm0,0h0a0,0,0,0,1,0,0h0a0,0,0,0,0,0,0Z"/></g><g ><path d="M8.94,7.38h0l0,0h0v0" style="fill:#c8b100"/></g><g ><path d="M8.93,7.4l0,0h0v0Zm0,0,0,0h0Z"/></g><g ><path d="M8.9,7.37h0" style="fill:#c8b100"/></g><g ><path d="M8.91,7.38h0s0,0,0,0Zm0,0Z"/></g><g ><path d="M9.08,7.42h0v0h0l0,0h0" style="fill:#c8b100"/></g><g ><path d="M9.06,7.45h0v0h0v0Zm0,0h0v0Z"/></g><g ><path d="M9,7.43h0l0,0H9" style="fill:#c8b100"/></g><g ><path d="M9.05,7.45H9v0H9l0,0h0Zm0,0h0v0H9Z"/></g><g ><path d="M9.08,7.47h0v0h0v0" style="fill:#c8b100"/></g><g ><path d="M9.06,7.48v0h0v0Zm0,0v0h0Z"/></g><g ><path d="M9.05,7.44h0s0,0,0,0" style="fill:#c8b100"/></g><g ><path d="M9.05,7.46H9s0,0,0,0h0Zm0,0h0Z"/></g><g ><path d="M9.14,7.48h0v0h0" style="fill:#c8b100"/></g><g ><path d="M9.12,7.51h0v0h0v0Zm0,0h0v0Z"/></g><g ><path d="M9.14,7.53h0v0h0v0" style="fill:#c8b100"/></g><g ><path d="M9.11,7.53v0h0l0,0v0Zm0,0v0h0Z"/></g><g ><path d="M9.09,7.48h0l0,0h0v0h0" style="fill:#c8b100"/></g><g ><path d="M9.11,7.51h0v0h0v0h0Zm0,0h0v0h0Z"/></g><g ><path d="M9.12,7.51h0v0h0" style="fill:#c8b100"/></g><g ><path d="M9.11,7.51h0v0h0Zm0,0Z"/></g><g ><path d="M9.16,7.57h0a0,0,0,0,0,0,0s0,0,0,0h0" style="fill:#c8b100"/></g><g ><path d="M9.2,7.58h0s0,0,0,0a0,0,0,0,1,0,0h0Zm0,0h0a0,0,0,0,0,0,0Z"/></g><g ><path d="M9.14,7.54h0l0,0h0v0h0" style="fill:#c8b100"/></g><g ><path d="M9.16,7.57l0,0v0h0v0Zm0,0h0v0h0Z"/></g><g ><path d="M9.16,7.57a0,0,0,0,0,0,0h0a0,0,0,0,0,0,0h0" style="fill:#c8b100"/></g><g ><path d="M9.16,7.57h0Zm0,0Z"/></g><g ><path d="M10.44,6.86h-.09v0h0v0h0v0h0v0h0v0h0v0h0v0h0v0Zm-.08,0h0v0h0v0h0v0h0v0h0Z"/></g><g ><rect x="5.61" y="7.2" height="0.04"/></g><g ><rect x="5.6" y="7.2" height="0.04"/></g><g ><rect x="5.59" y="7.2" height="0.04"/></g><g ><rect x="5.58" y="7.2" height="0.04"/></g><g ><rect x="5.57" y="7.2" height="0.04"/></g><g ><path d="M5.57,7.24h0v0h0Zm0,0v0h0v0Z"/></g><g ><path d="M5.55,7.23v0h0v0Zm0,0h0v0h0Z"/></g><g ><path d="M5.53,7.23h0v0h0v0Zm0,0h0v0h0Zm0,0h0v0h0Z"/></g><g ><rect x="5.51" y="7.2" height="0.03"/></g><g ><rect x="5.5" y="7.2" height="0.03"/></g><g ><rect x="5.49" y="7.2" height="0.03"/></g><g ><path d="M5.49,7.23h0v0h0Zm0,0v0h0v0Z"/></g><g ><rect x="5.47" y="7.21" height="0.02"/></g><g ><rect x="5.46" y="7.21" height="0.01"/></g><g ><rect x="5.45" y="7.21" height="0.01"/></g><g ><rect x="5.45" y="7.21" width="0.01" height="0.01"/></g><g ><rect x="5.44" y="7.21" width="0.01"/></g><g ><path d="M5.63,7.24h0v0Zm0,0h0v0Zm0,0h0v0Z"/></g><g ><rect x="10.39" y="7.2" height="0.04"/></g><g ><rect x="10.38" y="7.2" height="0.04"/></g><g ><rect x="10.37" y="7.2" height="0.04"/></g><g ><rect x="10.36" y="7.2" height="0.04"/></g><g ><rect x="10.35" y="7.2" height="0.04"/></g><g ><path d="M10.34,7.24h0v0h0Zm0,0v0h0v0Z"/></g><g ><path d="M10.32,7.24v0h0v0Zm0,0h0v0h0Z"/></g><g ><path d="M10.31,7.23h0v0h0Zm0,0h0v0h0Zm0,0h0v0h0Z"/></g><g ><rect x="10.29" y="7.2" height="0.03"/></g><g ><rect x="10.28" y="7.2" height="0.03"/></g><g ><rect x="10.27" y="7.2" height="0.03"/></g><g ><path d="M10.27,7.23h0v0h0Zm0,0v0h0v0Z"/></g><g ><rect x="10.25" y="7.21" height="0.02"/></g><g ><rect x="10.24" y="7.21" height="0.01"/></g><g ><rect x="10.23" y="7.21" height="0.01"/></g><g ><rect x="10.22" y="7.21" width="0.01" height="0.01"/></g><g ><rect x="10.22" y="7.22" width="0.01"/></g><g ><path d="M10.4,7.24h0v0Zm0,0h0v0Zm0,0h0v0Z"/></g></svg>
